<?xml version="1.0" encoding="utf-8"?>
<svg xmlns="http://www.w3.org/2000/svg" viewBox="0 0 305 164">
	<title>A diagram consisting of three lines of text, followed by one line of characters and symbols, followed by one more line of text. The lines of text just have numbers showing; the remaining characters are simply full stops. The line of characters and symbols reads: D, DF under a line, a rectangle, 19 F + 44, a right triangle lying on the hypotenuse with a dot at the left corner, 357, and the same triangle flipped horizontally.</title>
	<path d="M48.23 163.1a1.36 1.36 0 0 1-.13-.82c.12-.74-.47-1.24-1.45-1.24-.66 0-1.08-.2-1.62-.82-.4-.45-1.09-1-1.52-1.22a29.29 29.29 0 0 1-2.78-1.9c-2.98-2.23-3.68-2.67-4.24-2.67-.28 0-.91-.36-1.41-.8-.5-.43-1.09-.79-1.32-.79-.22 0-.48-.11-.56-.24-.08-.14-.54-.33-1-.43-.48-.1-2-.75-3.38-1.44-2.92-1.46-4.27-1.93-4.84-1.71-.5.2-1.48-.3-2.09-1.08-.5-.65-3.12-1.98-3.88-1.98-.27 0-.7-.24-.96-.53-.27-.29-.76-.53-1.1-.53-.61 0-2.26-.8-3.02-1.48-.23-.2-.66-.37-.94-.37-.29 0-.67-.15-.85-.32-.25-.26-.43-.26-.83-.01-.4.25-.7.23-1.48-.1a4.84 4.84 0 0 0-1.8-.34c-.46.03-1-.02-1.23-.1-.21-.1-.8-.2-1.3-.24-.83-.07-.93-.17-1.19-1.27-.2-.87-.43-1.21-.81-1.27-.3-.04-.8-.28-1.14-.54-.57-.43-.59-.53-.3-1.86.16-.77.24-1.61.17-1.88-.07-.26.04-2.72.24-5.47.2-2.74.37-5.17.37-5.38l-.11-6.88c-.15-7.95-.36-11.04-.82-11.76-.24-.37-.32-1.13-.23-2.4.2-3.16.29-13.04.11-14.09-.25-1.56.4-3.78 1.38-4.6l.82-.7-.84-.43c-.46-.24-.84-.55-.84-.7 0-.14-.3-.4-.67-.56-.74-.34-.86-.94-.26-1.38.24-.17.67-1.58 1.06-3.45.61-2.95.66-3.72.69-11.51.01-4.6.14-8.89.29-9.54.41-1.87.52-6.1.17-6.53-.23-.28-.22-.54.04-1.09.42-.88.8-2.45.97-4.02.08-.66.25-1.3.38-1.45.13-.13.24-.81.24-1.5 0-1.23.56-2.78 1.58-4.33.28-.44.71-1.15.96-1.59.24-.43.8-1.33 1.26-1.98a42.57 42.57 0 0 0 2.95-4.9c2.09-3.76 3.39-5.8 5.1-8.03l2.52-3.25c.71-.92.98-1.51.92-2.02-.08-.68-.17-.72-1.61-.8-1.41-.07-1.65 0-2.85.89-1.42 1.04-1.97 1.04-2.36 0a2.76 2.76 0 0 0-.93-1.1c-1.06-.69-1.3-1.35-.8-2.11.39-.6.38-.7-.17-1.43-.54-.74-.55-.82-.14-1.28.56-.62.57-1.73.02-2.2-.74-.6-.3-2.7.86-4.13l.97-1.19-.49-.91c-.42-.79-.43-.95-.1-1.17.5-.34 2.42-.05 2.76.4.14.2.39.58.54.84.2.34.65.47 1.67.49 1 .01 1.47.15 1.64.45.15.27.78.5 1.74.62.83.1 1.71.32 1.97.48.35.22.8.17 1.89-.2 1.37-.46 1.46-.47 2.42 0 1.43.67 1.88 1.5 1.84 3.34-.03 1.36.05 1.6.63 2.07.45.35.8.45 1.1.3.67-.35 1.23-.01 2.28 1.36.6.8 1.16 1.25 1.51 1.25l3.9.12c1.83.07 4.1 0 5.05-.16.94-.16 2.79-.3 4.1-.32 1.3-.02 2.55-.15 2.76-.28.22-.14 2.48-.28 5.03-.32 2.55-.04 6.13-.2 7.95-.35 1.82-.15 4.04-.3 4.95-.34.9-.04 1.79-.22 1.97-.4.4-.4 1.71-.43 1.96-.04.17.28 2.7.24 11.5-.19 5.26-.25 7.86-.2 8.99.17a2.9 2.9 0 0 0 2.08.04c.97-.3 6.86-.7 9.16-.64 22.39.62 38.94.53 41.33-.23.6-.19 1.15-.17 1.92.06.84.25 1.3.25 2.17 0 .76-.24 3.27-.33 8.13-.33 5.9 0 7.2-.06 8.04-.42.93-.4 1.07-.4 1.95.02.83.4 1.46.43 5.08.25 2.28-.11 4.8-.15 5.6-.1 1.6.13 1.88.13 9.26.03 3.83-.05 5.35-.16 5.89-.44.47-.25.89-.3 1.19-.14.62.31 5.71.17 7.2-.2 3.19-.79 10.19-1.19 13.24-.75.94.13 3.89.27 6.54.31 3.81.06 4.9 0 5.13-.28.39-.47 1.67-.45 3.12.06 1.34.46 3.74.3 4.74-.34.35-.22.8-.3 1.06-.19.24.1.8.23 1.23.27l3.7.4c2.58.29 6.8.48 10.86.5 1.89 0 3.63.58 4.03 1.35.2.4.28 1.14.2 1.96-.09.72-.05 1.46.07 1.64.11.18.78.37 1.48.44.7.06 1.46.3 1.7.5.25.22 1.29.54 2.3.72 1.02.18 2.3.61 2.84.96.55.35 1.09.63 1.21.63.12 0 .44.16.72.36.38.28.56.94.77 2.82.25 2.15.37 2.52.95 2.94 1.15.83 7.27.58 8.1-.33.48-.53 1.06-.65 1.2-.25.12.34 4.31.91 7.23.98 3.25.08 10.08.54 11.4.76 1.04.18 1.1.15 1.65-.77.3-.52.73-.95.93-.95.82 0 2.02.6 2.18 1.1.15.48.31.52 1.59.36 1.3-.16 1.5-.11 2.35.57 1.08.86 1.12 1.06.45 2.45-.53 1.09-.55 2.5-.08 6.04.16 1.18.16 2.27.02 2.8-.28.98-.13 28.53.16 31.66.18 1.94.16 2.03-.65 3.23-.46.68-.96 1.6-1.11 2.04-.16.45-.4.81-.53.81s-.48.39-.76.86c-.61 1-.7 2.32-.17 2.32.66 0 1.68 1.03 1.89 1.9.27 1.21.24 2.2-.13 4.05-.18.87-.24 2.15-.15 2.84.13.98.08 1.26-.2 1.26-.3 0-.37.64-.38 3.11a72.36 72.36 0 0 1-.45 8 42.5 42.5 0 0 1-.42 2.91c-.17.95-.34 2.74-.37 3.97-.2 7.07-.48 12.85-.62 13.09-.1.15-.2 1.7-.25 3.45-.04 1.74-.17 4.49-.29 6.1-.12 1.6-.13 3.76-.04 4.79.1 1.02.1 2.45 0 3.16-.2 1.57.07 7.99.36 8.64.16.33.08.5-.28.63-.74.27-2.2 1.88-2.2 2.44 0 .27-.3.93-.67 1.47a3.85 3.85 0 0 0-.66 1.42c0 .25-.3.93-.65 1.51a4.87 4.87 0 0 0-.66 1.42c-.01.45-2.1 3.59-3.1 4.67-.42.43-1.1 1.33-1.54 1.98-1.5 2.28-2.34 3.17-3.43 3.7-1.36.66-1.98.66-3.94 0-1.15-.38-1.68-.44-2.06-.24-.28.15-.78.19-1.1.08a20.2 20.2 0 0 0-3.36-.24 38.93 38.93 0 0 1-4.63-.33c-1.02-.17-2.78-.3-3.92-.31a9.23 9.23 0 0 1-2.78-.35c-.7-.34-1.14-.35-5.2-.1a32.5 32.5 0 0 1-4.37-.11c-4.12-.43-24.68-.78-32.15-.55-5.28.15-12.66.03-12.96-.22-.23-.2-1.07-.2-2.69-.04-1.29.14-3.36.2-4.6.14l-2.64-.12c-.22 0-1.35.04-2.51.1-8.3.44-10.5.47-11.4.17-.51-.17-1.61-.32-2.44-.34a3.84 3.84 0 0 0-2.63.7c-1.34.85-1.49.86-1.95.17-.32-.48-.65-.55-2.62-.55a83 83 0 0 0-4.63.16 50.4 50.4 0 0 1-3.04.13c-2.36-.08-2.94.01-3.7.57l-.8.59-.62-.6c-.56-.52-.82-.57-2.19-.43-1.36.14-5.89.41-7.37.45-1.37.03-10.1-.62-12.57-.93-1.61-.21-3.03-.27-3.37-.14a2 2 0 0 1-1.21-.02c-.34-.12-2.03-.17-3.77-.1-3.29.13-27.25.16-32.8.03a53.6 53.6 0 0 0-6.21.3c-3.18.37-4.66.4-13.36.28a452.16 452.16 0 0 0-10.45-.07c-1.32-.06-5.48.32-6.1.56-.4.14-.9.14-1.3 0a2 2 0 0 0-1.32 0c-1.61.6-3.27.9-4.35.77a12.6 12.6 0 0 0-5.42.97c-.49.26-1.11.4-1.39.33-.27-.07-.78.1-1.13.38-.75.59-1.1.63-1.4.17zm236.38-5.56c.26-.33.7-3.54.54-4.04-.07-.25-4.16-.22-4.43.03-.06.06.03.25.2.43.49.48.37.98-.29 1.28-.33.15-.88.69-1.23 1.2-.44.64-.71.84-.9.64-.16-.15-.57-.27-.92-.27-1.11 0-.16.75 1.1.86 2.76.26 5.67.19 5.93-.13zm-233.04-.6c.67-.34 2.42-.45 6.36-.4.36.01 2.56-.11 4.9-.28 3.82-.27 6.39-.33 11.5-.3a1134.59 1134.59 0 0 1 16.67 0c4.87.04 9.22.06 9.66.04.43 0 1.56 0 2.51.04.95.03 2.37-.03 3.18-.13.8-.1 6.87-.24 13.49-.3s14.4-.18 17.28-.27c3.34-.1 5.55-.05 6.09.13.46.15 1.67.26 2.69.25 1.02-.02 3.58 0 5.7.02 2.1.02 4.12-.07 4.48-.2.43-.16 1.13-.11 2.11.15 1.11.3 2.12.34 4.11.19 1.46-.1 3.19-.16 3.84-.12 1.75.1 2.47.1 12.3-.12 4.95-.1 9.42-.17 9.93-.14a60 60 0 0 0 6.74-.13c4.18-.2 3.9-.2 5.21.01.61.1 1.26.02 1.73-.21.66-.33.87-.32 1.79.08.99.44 5.42.65 11.91.58l14.16-.08c12.15-.06 12.58-.08 13.14-.6.54-.48.8-.5 3.39-.33 2.38.16 2.91.28 3.53.8.7.6.9.62 6.72.7l5.99.1.46-.8c.82-1.41 1.5-1.57 1.9-.45.19.55.53.83 1.34 1.07 1.26.37 2.07.04 2.33-.96.17-.66.91-1.18 1.46-1 1.39.43 1.77.4 1.94-.13.1-.3.48-.66.86-.8.56-.22.84-.16 1.46.3l.78.57.75-.56c.42-.3 1.07-.56 1.45-.56.53 0 .65-.1.54-.46-.29-.93.78-1.63 2.23-1.48.5.06 1.97.14 3.26.19 2.22.08 2.35.06 2.56-.51.13-.33.22-.82.2-1.09-.04-1.03 1.22-3.98 2.27-5.28a6.97 6.97 0 0 1 3.07-2.25c1.08-.49 2.33-1.07 2.78-1.29l.8-.4.23-3.3c.2-2.84.17-3.5-.23-4.66-.39-1.16-.4-1.51-.12-2.38a6.1 6.1 0 0 1 .56-1.33c.13-.16.3-4.09.37-8.73.07-4.64.18-9.27.24-10.28.28-4.78.64-8.6.84-8.91.2-.33.38-2.53.37-4.72 0-.51.11-1.46.25-2.12.14-.65.32-3.03.4-5.29.17-4.86.36-6.98.7-8.1.31-1.04.07-1.69-.66-1.7-.3 0-.7-.09-.88-.2-.47-.3-1.19-2.14-.97-2.49.1-.16.2-1.87.23-3.8.05-3.07.12-3.6.61-4.28.3-.43.73-.92.95-1.1.22-.19.73-.89 1.13-1.57.7-1.18.74-1.4.8-5.2.04-2.18.16-5.04.28-6.35.2-2.32.19-5.21-.03-12.57-.05-1.96.01-4.76.15-6.22.14-1.45.23-2.82.2-3.04-.02-.22-.08-1.4-.13-2.65-.1-2.8-.09-2.7-.37-3.15-.17-.27-.95-.42-2.58-.52-4.12-.23-5.11-.2-5.37.22-.19.31-.4.32-1.24.07-2.27-.7-3.38-.78-8.82-.71-3.13.04-5.99.1-6.35.12-.37.02-1.45.03-2.4.01a9.5 9.5 0 0 0-2.34.2c-.85.32-4.24-.1-5.55-.69-1.42-.64-2.92-2.87-2.93-4.36-.01-1.43-.66-2.56-1.46-2.56a4.8 4.8 0 0 1-1.7-.55 8.53 8.53 0 0 0-2.59-.7 6.95 6.95 0 0 1-2.36-.64c-.46-.27-1-.5-1.2-.5-.41 0-1.48-1.08-1.97-1.98-.16-.29-.23-.98-.17-1.54l.13-1.02-3.41.16c-1.87.09-3.98.16-4.68.16-.7 0-1.24.08-1.19.2l.48.95c.34.69.33.79-.14 1.14-.42.3-1.14.35-3.63.23-1.7-.09-3.4-.27-3.77-.41a3.17 3.17 0 0 0-1.47-.09 5.5 5.5 0 0 1-2.19-.26 40 40 0 0 0-2.86-.73c-1.29-.27-1.57-.26-2.1.12a3 3 0 0 1-1.48.43c-.47 0-.92.12-1.01.26-.22.36-1.54.34-2.38-.04-.94-.43-1.12-1.35-.43-2.23.85-1.08.74-1.52-.3-1.26-.47.11-1.16.18-1.52.16-.37-.02-3.16-.08-6.22-.13-5.84-.1-9.44.07-12.3.55-3.66.61-11.23 1.1-18.4 1.2-2.77.03-8.37-.33-11.12-.72-2.04-.3-3.27-.32-5.29-.12-3.42.33-4.04.34-5.09.09-.8-.2-.9-.15-1.18.62-.33.87-1.08 1.16-.95.36.15-.88-.29-1.12-1.99-1.12-.9 0-1.78.12-1.93.28-.15.15-1.19.32-2.3.38-1.12.06-2.15.18-2.3.27-.16.1-3.2.22-6.77.28-3.57.06-6.63.2-6.8.3-.32.2-7.44.43-11.29.37-8.2-.13-28.45-.05-29.76.12-.87.1-2.32.54-3.23.95-2.28 1.03-2.86.99-4.08-.34l-1.01-1.1-4.29.19c-2.36.1-4.37.23-4.48.3-.1.06-3.45.18-7.43.25-3.98.07-8.19.26-9.35.41-1.17.15-3.7.33-5.65.4a21.6 21.6 0 0 0-3.97.36c-.23.13-1.46.17-2.72.1-1.8-.13-2.6-.06-3.71.31-1.13.38-2.5.5-6.7.56-3.93.05-5.57.18-6.36.48-1.73.65-2.17.55-2.77-.64-.44-.85-.69-1.06-1.29-1.06-1.12 0-1.16.24-.24 1.4 1.58 2 2.06 2.7 2.72 4.06.53 1.07.61 1.5.42 2.03-.28.71-2.02 2.28-3.38 3.03-4.07 2.26-10.14 7.34-10.14 8.5 0 .59-.7 1.1-1.54 1.1-.3 0-1.11.64-1.9 1.51-2.05 2.28-3.08 3-3.86 2.7-1.32-.5-1.81.18-2.42 3.32a42.75 42.75 0 0 0-.83 6.22 73.61 73.61 0 0 1-.79 5.82c-.47 2.55-.56 4.18-.59 10.06-.02 3.85-.02 7.78 0 8.72 0 .95-.16 2.66-.37 3.8-.22 1.15-.4 2.55-.4 3.1 0 1.02.02 1.03 1.44 1.45.79.23 1.74.66 2.11.95 1.3 1.02.63 2.88-1.4 3.92-.52.27-1.3.86-1.72 1.3l-.76.8.2 3.46c.13 2.35.1 3.7-.1 4.18a2.45 2.45 0 0 0-.08 1.52c.13.45.12 1.19-.02 1.7a3.8 3.8 0 0 0 .08 2.06c.18.64.32 1.84.3 2.67 0 .83.1 2.14.25 2.91.2 1 .19 1.5-.02 1.76-.2.24-.24 1.58-.14 4.28.27 6.68.3 10.53.08 10.99a46.2 46.2 0 0 0-.35 5.64c-.07 2.87-.2 5.32-.29 5.47-.09.14-.09.54 0 .9.19.74 2.53 2.04 4.24 2.35.58.1 1.47.4 1.99.67.51.26 1.35.62 1.86.8.51.17 1.46.52 2.12.77.65.25 1.9.6 2.78.8.87.18 2 .5 2.51.7.51.2 1.43.48 2.04.64.61.15 1.18.38 1.25.5.08.13.6.3 1.17.4.56.08 1.37.33 1.79.55 1.07.56 1.69.51 1.69-.13 0-.69.59-.92 1.33-.52.46.25.55.47.42 1.08-.13.68-.04.82.87 1.28.56.3 2.2.9 3.63 1.34l3.54 1.1c.5.16 1.22.5 1.59.75.36.25 1.13.6 1.72.8.58.18 1.23.48 1.45.66.22.18.7.42 1.06.53 1.01.3 4.83 2.23 5.4 2.73.71.64 1.25 2.06 1.06 2.82-.2.77 0 1.46.42 1.46.16 0 .63-.18 1.05-.4zm228.87-7.14c-.26-.32-.24-.53.1-1.06a1.86 1.86 0 0 1 2.43-.65c.94.5.82 1.26-.27 1.72-1.17.49-1.84.49-2.26-.01zM75.4 136.77c-.8-1.01-.86-1.6-.4-3.64 1.25-5.5 1.25-5.94-.01-5.95-1.23-.01-1.58-1.4-.58-2.3 1.03-.94 3.06-1.98 3.68-1.9.32.06.8.46 1.07.92.45.77.45.93.06 2.64-.7 3.01-.9 4.87-.86 7.59.02 1.42-.07 2.69-.2 2.8-.14.13-.7.3-1.23.38-.85.13-1.07.05-1.53-.54zm27.74-.07c-.32-.44-.72-.8-.87-.8-1.17 0-2.24-.6-2.66-1.48-.87-1.85.15-2.9 2.52-2.59.7.1 1.83.09 2.5-.01 1.04-.16 1.28-.31 1.64-1.06.45-.95.32-2.11-.26-2.34-.2-.07-.91 0-1.59.15-1.07.24-1.3.22-1.77-.2-.29-.27-.53-.73-.53-1.04 0-1.16 2.08-5.82 2.7-6.05.2-.07.88-.07 1.54 0 .66.08 1.6.02 2.12-.12 1.77-.48 2.84.37 2.6 2.08-.13.87-1.6 1.53-3.47 1.54-1.98.02-2 .48-.08 1.71 1.63 1.04 2 1.58 2 2.9 0 1.5.2 1.75 1.43 1.75.78 0 1.38.2 2.02.69.77.57 1.1.65 2.06.53 3.32-.44 4-3.6.78-3.6-.71 0-1.53-.12-1.8-.27-.69-.36-.68-1.62 0-2.24.63-.57.7-1.05.13-.83-.45.18-1.44-.7-1.44-1.27 0-1.05.53-1.69 1.74-2.1.7-.24 1.57-.43 1.94-.42 1.36.02 2.67 1.8 2.67 3.66 0 .73.2 1.29.64 1.81.39.47.75 1.39.93 2.4.27 1.48.25 1.73-.27 2.76-.67 1.34-2.04 2.85-2.6 2.85-.2 0-.57.17-.8.38-.23.2-1.13.44-2 .52-2.2.2-4.1-.65-4.9-2.2a3.6 3.6 0 0 0-.68-1.08c-.65 0-3.55 2.5-3.55 3.05 0 .47-1.24 1.71-1.7 1.71-.22 0-.67-.35-1-.79zm-21.1.08c-1.54-.76-2.38-2.77-1.48-3.52.32-.27.79-.28 2.13-.06 1.4.24 1.93.22 2.91-.12 1.32-.45 2.06-1.31 1.92-2.25-.07-.53-.25-.62-1.4-.7-1.74-.1-2.08-.42-1.9-1.74.11-.88.03-1.15-.5-1.64-1.32-1.23-1.02-2.95.67-3.85 1.33-.7 2.8-.63 3.88.19 1.55 1.18 1.99 2.54 1.37 4.25-.26.7-.24 1.04.11 1.87.78 1.85.79 2.67.04 3.94-1.03 1.76-3.82 3.72-4.8 3.36-.17-.06-.58.07-.91.3-.74.52-.92.52-2.03-.03zm205.46.14c-.56-.31-.55-.97 0-1.59.41-.45.41-.52 0-.97-.67-.74-.52-1.33.5-1.93.83-.5.91-.64.77-1.4-.19-1.01.07-1.26 1.81-1.73.96-.26 1.43-.27 1.92-.05.95.43.87 1.43-.14 1.81-.78.3-1.05.95-.53 1.27.46.29.29 1.05-.32 1.43l-.57.36.72.38c.6.31.71.53.65 1.22-.07.7-.22.86-1.01 1.05-1.45.34-3.33.41-3.8.15zM95.3 134.3c-.36-.14-.7-.6-.9-1.29-.28-.95-.26-1.13.17-1.62.36-.4.68-.5 1.17-.37 1.34.33 1.68 1.2 1.03 2.61-.36.8-.7.95-1.47.67zm36.78-.2c-.34-.2-.87-1.45-.87-2.05 0-.6 1-1.44 1.72-1.44.78 0 1.72.86 1.72 1.58 0 1.05-1.8 2.4-2.57 1.92zm12.9-.08a2.83 2.83 0 0 0-1.39-.09c-.6.13-.9 0-1.54-.63-1.28-1.28-1.09-1.96.87-3.06 1.87-1.04 4.43-3.58 4.43-4.38 0-.74-.65-.67-1.17.12-.56.86-1.34.84-2.15-.03-1.14-1.23-.75-2.68 1.03-3.78 2.38-1.47 5.98.45 5.99 3.18 0 .53-.22 1.24-.5 1.6-.26.34-.65.94-.85 1.33-.2.39-.83 1.07-1.4 1.52-.56.45-.95.83-.86.85.87.17 2.02.07 2.64-.23.64-.32.83-.31 1.37.04.86.56 1.06 1.37.53 2.17-.24.36-.57.7-.75.74-.17.04-.75.22-1.29.4-1.3.41-4.16.56-4.96.25zm-20.28-.63a1.7 1.7 0 0 1-.26-1.39l.33-1.43c.15-.74.61-1.09 1.05-.8.51.36 1.42 2.11 1.42 2.75 0 1.43-1.78 2.04-2.54.87zm66.57-1.28c-1.2-.4-1.59-1.38-.93-2.38.34-.52.68-.7 1.31-.7 1.61 0 2.31 1.75 1.14 2.84-.53.48-.7.5-1.52.24zm22.43-.1c-.7-.8-1-1.59-1-2.56 0-1.4.63-1.63 3.01-1.07 1.83.44 1.95.44 2.64-.02.81-.53 1.5-1.67 1.5-2.5 0-.74-1.06-1.13-2.1-.77-1.22.43-2.2.2-2.66-.62-.38-.68-.35-.82.55-2.64a17.62 17.62 0 0 0 1.14-2.8c.1-.47.4-.96.64-1.08.24-.13 1.77-.3 3.4-.39 2.96-.16 2.96-.16 3.5.53.69.87.69 1.2 0 1.83-.4.36-1.07.52-2.45.6-2 .1-2.82.51-2.82 1.4 0 .32.19.5.54.5 1.01 0 2 .74 2.71 2.06.9 1.64.9 2.16 0 3.7a8.68 8.68 0 0 1-5.1 3.92c-1.66.5-3.01.47-3.5-.1zm-30.72-.02c-.75-.16-1.04-1.27-.57-2.18.33-.64.57-.78 1.3-.78.95 0 1.74.73 1.74 1.6 0 .83-1.38 1.6-2.47 1.36zm16.75-.32c-.29-.29-.53-.64-.53-.77 0-.78.66-1.7 1.7-2.36.64-.4 1.49-1.12 1.88-1.58.39-.47.87-.84 1.06-.84.68 0 .7-.55.02-1.34-1.35-1.6-1.11-3.37.65-4.85 1-.85 2-.88 3.18-.1 2.71 1.84 2.73 4.5.06 6.75-.7.6-1.18 1.17-1.06 1.29.24.24 1.74.22 3.14-.04.89-.16 1.01-.11 1.37.58.33.64.34.89.04 1.6-.47 1.1-1.26 1.49-2.72 1.32a5.46 5.46 0 0 0-1.97.14c-.56.2-1.06.18-1.8-.06-.9-.3-1.13-.27-2.17.23-1.45.7-2.17.71-2.85.03zm7.09-8.41c.05-.18-.09-.32-.32-.32a.42.42 0 0 0-.42.42c0 .47.57.39.74-.1zm22.06 6.48c-.72-.77-.72-1.25-.02-2.13.64-.82 1.07-.87 2.12-.25.88.52 1.02 1.46.36 2.4-.55.78-1.71.77-2.46-.02zm14.5.3l-1.77-.51c-.52-.16-1.03-.17-1.32-.03-2.5 1.28-4.37-.54-2.43-2.35.45-.42 1.05-.77 1.32-.77.28 0 1.05-.53 1.71-1.19a6.14 6.14 0 0 1 1.45-1.19c.46 0 1.84-2.19 1.84-2.92 0-.91-.9-1.22-1.8-.62-.53.35-.61.57-.5 1.31.2 1.24-.47 2.08-1.48 1.82-1.65-.41-2.28-2.55-1.24-4.22.64-1.05 2.82-2.08 4.41-2.1.95-.01 1.28.14 2.16 1 1.28 1.25 1.53 2.42.94 4.44a5.38 5.38 0 0 1-1.61 2.56c-1.32 1.27-1.34 1.75-.07 2 1.45.3 1.96.2 3.25-.62 1.5-.96 2.35-1.02 2.78-.2.24.46.23.82-.05 1.6-.53 1.5-2.19 2.3-4.72 2.27a15.22 15.22 0 0 1-2.86-.28zm46.51-2.1c-.67-.38-.57-1.17.23-1.8.81-.64 1.75-.71 2.2-.17.4.48-.22 1.52-1.19 1.96-.79.36-.66.35-1.24.02zm-220.61-2.3a5 5 0 0 1-1.77-1.9c-1.02-1.7-1.14-3.11-.32-3.85.52-.48.55-.47 1.23.2.44.45.7 1 .71 1.56.03.71.16.9.8 1.06.43.12.86.35.97.53.15.24.37.21.9-.13.74-.5.68-.96-.13-.96-.27 0-.56-.11-.64-.25-.22-.34.59-1.07 1.2-1.07.6 0 .62-.08.1-1.09-.49-.93-.3-1.83.4-1.83 1.14 0 2.6 2.9 2.26 4.48-.19.84-2.02 2.86-2.88 3.18-1.37.5-1.95.51-2.83.08zm221.5-2.66c-.2-.35-.14-.74.18-1.39.37-.73.62-.91 1.4-.98 1.14-.1 2.46.94 2.18 1.72-.34.95-.69 1.14-2.1 1.14-1.1 0-1.46-.1-1.67-.49zm-221.75-4.65c0-.54.78-1.25 1.28-1.15.55.1.73 1 .27 1.3-.58.36-1.55.27-1.55-.15zm167.81-1.75c-.87-.35-.8-1.6.18-2.7.42-.49 1.24-1.83 1.8-2.99.57-1.16 1.42-2.84 1.9-3.73.83-1.58.84-1.66.43-2.45-.37-.73-.38-.9-.03-1.58.3-.57.65-.8 1.42-.92a2.86 2.86 0 0 0 1.44-.63c.32-.36 1.53-2.63 1.53-2.86 0-.28-2.7.32-3.27.73-.65.45-.85.48-1.38.2-.67-.36-1.27-1.55-1.13-2.26.18-.94 1.34-1.45 3.54-1.58 1.16-.06 2.73-.24 3.5-.4 3.34-.7 4.51 1.06 2.32 3.45-1.42 1.54-2.56 3.45-2.39 4 .22.68-.24 1.42-1.3 2.07-.64.4-1.06.98-1.5 2.07a39.13 39.13 0 0 1-3.3 6.32 9.95 9.95 0 0 0-1.06 1.9c-.3.77-.65 1.15-1.24 1.35-.45.16-.82.28-.84.27l-.62-.26zm-102.83-1.07c-.88-1.04-.87-1.95.01-2.77.39-.35.79-.65.9-.65.65 0 3.42-2.82 3.43-3.5 0-.11-.7-.2-1.54-.2-1.99 0-3.49-1-4.17-2.8-.44-1.15-.44-1.28.01-2.7.56-1.78 1.86-3.21 2.96-3.27 2.04-.12 2.78.13 4.05 1.35 1.23 1.18 1.97 2.67 1.9 3.85-.02.43.06 1.15.18 1.59.28 1.01-.48 3.65-1.31 4.54-.53.56-.57.73-.3 1.46.38.98.25 1.27-.57 1.27-.37 0-.8.27-1.05.66-.24.37-.56.66-.7.66-.15 0-.74.3-1.31.67-1.35.85-1.66.83-2.5-.16zm3.7-10.91c.82-.7.72-1.05-.47-1.66-.76-.4-.86-.39-1.5.1-.8.6-1 1.25-.55 1.8.47.57 1.72.45 2.53-.24zm-65.48 8.58a1.26 1.26 0 0 1-.36-1.18c.16-.85.62-1.25 1.72-1.47.85-.18.86-.2.83-1.62-.02-.8-.15-2.2-.29-3.13-.21-1.36-.42-1.83-1.1-2.46-.45-.43-.83-.93-.83-1.12 0-1.4 3.19-1.64 6.7-.53 2.45.78 2.84 1.09 3.46 2.7a5.62 5.62 0 0 1-.35 4.47c-.64 1.03-3.21 2.96-4.4 3.3-.55.14-1.45.55-2 .9-1.23.78-2.68.84-3.38.14zm6.95-5.06c1-1.09 1.16-1.82.7-3.02-.28-.75-.99-.9-1.23-.28-.22.58-.89.48-.89-.13 0-.36-.18-.53-.55-.53-.52 0-.54.1-.37 2.18.09 1.2.21 2.33.27 2.51.2.65 1.13.32 2.07-.73zm18.37 4.04c-.89-1.01-1.05-1.64-.77-2.94.15-.69.22-2.52.16-4.07l-.11-2.81.78-.66c.75-.63.88-.65 4.26-.56 2.04.05 3.77-.03 4.18-.2.63-.25 1.42-.32 7.03-.57a27.8 27.8 0 0 0 3.11-.29c.55-.1 1.4-.12 1.92-.02 1.53.29 1.76 1.08 1.81 6.16.04 4.32.04 4.36-.6 4.88-.43.34-.84.46-1.2.34a3.1 3.1 0 0 0-.94-.14l-2.35.14c-1.07.06-2.14.2-2.38.3-.23.11-2.27.28-4.53.38-2.25.1-5.42.26-7.03.35-2.6.16-2.98.12-3.34-.29zm11.56-3.41a55.1 55.1 0 0 1 3.37-.14c.11.02 1.1-.1 2.2-.25 1.5-.23 2.06-.43 2.26-.8.27-.5.2-4.07-.1-4.36-.2-.2-5.87.39-6.71.7-.39.15-2.68.32-5.1.37-2.4.05-4.6.18-4.85.29-.55.22-.4 1.16.27 1.58.93.6 2.18 1.8 2.18 2.1 0 .69.66.97 1.98.83.73-.08 2.76-.22 4.5-.32zm18.52 3.67c-1.07-.8-1.54-3.84-.77-5.03a4.8 4.8 0 0 0 .46-1.98c.05-1.32.03-1.36-1-1.9-1.48-.76-1.5-1.43-.13-2.61 1.58-1.35 2.7-1.83 3.52-1.52 1.06.4 1.3 1.11.97 2.88-.29 1.62-.55 4.76-.63 7.81-.04 1.44-.16 1.9-.56 2.19-.54.4-1.43.47-1.86.16zm-77.75-.87c-1.05-.83-.95-1.97.23-2.66l.92-.55-.07-2.3c-.06-1.94-.17-2.43-.67-3.07-.33-.42-.53-.93-.45-1.13.07-.2.14-.48.14-.6 0-.46 1.96-1.15 3.67-1.3 2.67-.23 4.63.11 6 1.05 1.52 1.04 1.7 1.45 1.7 3.62 0 3.42-1.62 5.23-6.05 6.71-2.76.93-4.44 1-5.42.23zm6.38-3.68c1.27-.58 2.19-1.86 2.18-3.05 0-1.78-1.34-2.29-4.03-1.55-.39.1-.46.45-.46 2.11 0 2.02.29 3.01.87 3 .17 0 .82-.23 1.44-.51zm29.03 3.85c-.47-.34-.52-.74-.56-4.12-.03-3.42-.08-3.8-.6-4.34-.64-.7-.71-1.55-.16-2.1.31-.31 1.03-.37 3.77-.27 4.37.15 5.03.26 5.38.91.22.41.17.72-.21 1.38l-.5.84-2.27-.09c-1.47-.06-2.32 0-2.44.2-.1.16.03.36.3.45 1.74.56 1.93.7 1.93 1.43 0 .86-.48 1.32-1.65 1.57l-.86.18.09 1.6c.07 1.4 0 1.69-.52 2.17-.7.66-1.01.7-1.7.19zm62.13-.29c-.75-.53-1.24-2.82-.87-4.09.14-.5.18-1.72.1-2.72-.14-1.44-.33-2-.93-2.76-1.77-2.23-.49-3.12 4.77-3.34 3.95-.17 4.97-.03 5.47.72.5.78.14 2.03-.75 2.53-.56.31-.86.33-1.57.08-1-.36-4-.1-4.49.4-.55.55.24 1.1 1.52 1.05.89-.04 1.3.09 1.81.57.95.89 1.15 2.06.47 2.74-.51.5-.58.51-1.6.1-.67-.26-1.13-.33-1.23-.16a7.9 7.9 0 0 0-.09 2.07c.11 2.77-.98 3.95-2.6 2.81zm36.61-.2a3.5 3.5 0 0 1-.82-1.39l-.36-1.05-1.81-.06c-1-.03-2.08-.12-2.4-.2-1.04-.26-1.03-1.27.03-3.44.52-1.08.95-2.05.95-2.17 0-.12.3-.8.65-1.54.35-.73.71-1.66.8-2.07.09-.42.47-1.06.83-1.43l.67-.66.78.74c.42.4.77.97.77 1.25 0 .52-1.79 4.16-2.18 4.44-.12.08-.29.57-.37 1.09l-.15.93 1.02-.17c.84-.13 1.04-.29 1.15-.88.34-1.8 1.9-2.38 2.5-.93.23.54.75 1.06 1.38 1.4.76.39 1.04.71 1.1 1.27.1.84-.57 1.77-1.26 1.77-.67 0-1.07.55-1.07 1.48 0 .61-.2 1.02-.7 1.4-.81.65-.9.66-1.5.22zm-10.75-.44a3.25 3.25 0 0 1-.27-1.28c0-1.08-.18-1.16-1.35-.55-1.2.63-1.95.52-2.97-.42-.9-.84-.89-1.34.09-3.2.43-.82.8-1.65.8-1.83 0-.19.35-1.04.78-1.9.44-.85.8-1.73.8-1.95 0-.22.24-.79.52-1.26.4-.66.71-.86 1.32-.86 1.45 0 1.7 1.89.52 3.92a3.75 3.75 0 0 0-.51 1.27c0 .22-.3.83-.66 1.37-.78 1.14-.84 1.65-.2 1.64.71 0 1.03-.3 1.48-1.39.56-1.34 1.15-1.53 1.94-.62.34.4.62.9.62 1.12 0 .21.17.73.38 1.14.35.68.34.9-.15 2.3-.65 1.83-1 2.54-1.4 2.8-.55.37-1.46.21-1.74-.3zm44.36-1.11c-.87-.86-1-1.13-.92-2 .07-.93.15-1.02.96-1.1.5-.04 1.08.08 1.33.3.99.87 1.63 1.04 2.5.69a9.2 9.2 0 0 0 1.7-.98c.7-.53.86-.83.86-1.63 0-.65-.18-1.15-.53-1.47-.47-.43-.66-.44-1.93-.14-.77.19-1.62.3-1.9.24-.6-.12-1.1-1.7-.68-2.2.2-.24.1-.54-.38-1.1-.36-.42-.66-.92-.66-1.12 0-.79.99-1.96 2.06-2.45 2.24-1.03 4.29.2 4.29 2.57 0 1.01.15 1.34 1.12 2.39 1.1 1.2 1.11 1.23 1.11 3.17 0 1.07.07 1.95.16 1.95.08 0 .39-.17.67-.39.73-.55 1.25-.5 2.12.26 1.05.9 1.84.84 2.92-.24 1.76-1.76.81-4.07-1.52-3.7-.65.11-1.17.05-1.42-.16-.56-.46-.5-2.04.1-2.81.29-.36.72-1.3.97-2.1.26-.8.67-1.58.92-1.71.25-.13 1.57-.32 2.94-.41 2.34-.16 2.52-.13 3.33.48l.85.64-.85.79a4.63 4.63 0 0 1-3.52 1.41c-1.35 0-1.93.67-1.02 1.18.28.15 1.01.78 1.62 1.39a4.16 4.16 0 0 1 1.16 4.38c-.4 1.22-2.77 3.83-3.92 4.3-2.31.98-4.77-.05-5.22-2.18-.23-1.07-.49-1.08-1.25-.05-.33.44-1.33 1.26-2.22 1.83-1.44.9-1.8 1.02-3.18 1-1.43-.03-1.64-.12-2.57-1.03zm3.79-9.1c.18-.2.24-.6.14-.85-.16-.42-.23-.41-.69.15-.48.6-.48 1.1 0 1.1.12 0 .37-.18.55-.4zm-60.8 9.25c-.47-.33-.58-.67-.58-1.72v-1.3h-1.18c-.72 0-1.54-.22-2.12-.56-.78-.46-.94-.7-.94-1.45 0-1.13.97-1.7 2.9-1.7 1.29 0 1.34-.03 1.34-.75 0-.83.42-1.48 1.13-1.73.66-.23 1.77.98 1.58 1.72-.21.8.4 1.06 2.1.87a7.28 7.28 0 0 1 2 0c.62.2 1.2 1.36 1 2-.22.68-2.05 1.4-3.5 1.37-1.45-.03-1.71.24-1.5 1.55.1.7 0 1.06-.42 1.52-.66.7-1.01.74-1.8.18zm29.05-.25c-.55-.59-.58-.73-.29-1.39l1.8-3.9c.81-1.75 1.75-3.79 2.08-4.54 1.08-2.42 2-2.59 4.52-.81.73.5 1.73 1 2.23 1.11.9.19 4.14 1.6 6.72 2.93 3.9 2.01 7.44 3.9 7.64 4.1.74.68-1.22 2.87-2.21 2.48-.71-.28-9.85-.03-19.6.54-2.16.13-2.3.1-2.9-.52zm5.92-2.9c.09-.25-.1-.57-.5-.83-.36-.24-.66-.6-.66-.8 0-.2-.17-.36-.38-.36-.42 0-1.07 1.69-.81 2.1.26.44 2.17.34 2.35-.12zm7.66-.2c2.53.05 2.85 0 2.78-.39-.06-.27-.78-.67-1.94-1.07-1.02-.35-2.04-.81-2.27-1.02-.23-.2-.53-.37-.66-.37s-1.33-.56-2.66-1.24c-2.34-1.2-2.44-1.23-3.08-.81-.42.27-.66.68-.66 1.11 0 .63.07.67.86.52.7-.13.94-.05 1.3.45.55.8.53 1.18-.1 2.09-.7.95-.4 1.09 1.84.86.95-.1 3.01-.15 4.59-.12zm68.9 3.34c-.1-.1-2-.22-4.22-.27-5-.12-7.36-.25-8.03-.46-.94-.29-7.27-.4-8.76-.16-1.84.3-2.87-.14-3.13-1.32-.1-.44-.09-.93.01-1.09.1-.16 1.45-.91 3-1.67 1.54-.76 3.05-1.51 3.34-1.67.3-.16 1.3-.62 2.25-1.01.94-.4 2.43-1.05 3.3-1.45 2.34-1.08 4.38-1.86 4.88-1.86.25 0 .56-.11.7-.25.65-.65 4.46-2.4 5.22-2.39 1.5.01 2.04.53 3.52 3.39.78 1.5 1.84 3.22 2.35 3.82.51.6.93 1.19.93 1.3 0 .13.25.76.55 1.4.66 1.39.5 2.62-.37 3.12a6.1 6.1 0 0 1-2.16.35c-.88 0-1.95.1-2.4.2-.44.11-.88.12-.98.02zm1.92-4.07c0-.3-.42-1.15-.93-1.9a5.63 5.63 0 0 1-.92-1.8c0-.53-1.65-2.79-2.19-3-.2-.07-1.04.33-1.89.9a6.72 6.72 0 0 1-2 1.03c-.26 0-.62.18-.8.4-.18.22-.46.4-.63.4-.16 0-.6.15-.96.34-.36.18-1.2.5-1.85.7a50.9 50.9 0 0 0-6.88 3.01c0 .13 7.7-.04 8.6-.18.6-.1 1.63-.03 2.38.16.73.18 2.84.37 4.7.4 3.26.08 3.37.07 3.37-.46zm-6.2-1.3c-.89-1 .02-2.67 1.44-2.67.44 0 1.06.83 1.06 1.43 0 1.21-1.74 2.07-2.5 1.23zM71.95 99.86c-.87-.47-1-1.53-.25-2.2.8-.73 4.33-1 6.4-.48 1.14.29 1.75.31 2.54.1a8.52 8.52 0 0 1 1.93-.27c1.5.02 5.79-.18 8.46-.4 2.41-.2 2.58-.17 3.13.37.77.78.64 1.9-.27 2.33-.88.42-2.72.52-12.94.73-6.72.14-8.47.1-9-.18zm-9.86-10.3c-.66-.25-.72-.4-.72-1.6 0-1.33 0-1.34-.73-1.15-1.36.36-5.45.13-5.95-.32-.66-.59-.62-2.23.06-2.85.3-.26.53-.62.53-.79 0-.17.35-.77.79-1.34a5.5 5.5 0 0 0 .8-1.26c0-.12.41-.93.92-1.8 1.1-1.86 1.17-2.37.33-2.28-.44.05-.6-.08-.6-.47 0-.45.16-.52 1.09-.46.98.06 1.1 0 1.45-.78.54-1.2 1.66-1.52 2.52-.72.35.33.64.74.64.92 0 .52-1.08 2.8-1.82 3.83-1.21 1.68-2.55 4.72-2.23 5.04.2.21.44.21.83 0 .3-.16.82-.29 1.18-.29.64 0 1.5-.72 1.5-1.26 0-.17.27-.44.59-.61.49-.27.65-.22 1.05.28.27.33.49.87.49 1.22 0 .34.22.83.49 1.1 1 .97 1.1 1.45.4 2.26-.34.42-.63 1-.63 1.28s-.17.93-.38 1.43c-.32.75-.52.92-1.13.9a5.61 5.61 0 0 1-1.47-.29zm5.89-1.09c-.3-.47-.47-1.02-.4-1.21.08-.2.14-.44.14-.56 0-.3 1.27-.81 1.66-.66.19.07 1.25-.29 2.36-.8 2.4-1.1 3.36-2.18 2.9-3.2-.25-.55-.48-.65-1.53-.65-.78 0-1.55.2-2.12.55-.77.48-1.01.51-1.82.25-.85-.28-.92-.4-.92-1.35 0-.64.24-1.43.62-2.04 1.11-1.76 2.02-3.72 2.02-4.37 0-.74.6-1.34 1.86-1.86.72-.3 1.37-.32 3.04-.12 2.72.32 3.36.71 3.25 2-.1 1.3-.83 1.64-3.57 1.65-1.94 0-2.21.06-2.58.59-.66.94-.51 1.26.54 1.26.53 0 1.52.3 2.2.68 1.64.89 2.72 2.9 2.42 4.5-.27 1.49-.7 2.21-2.1 3.5-1.7 1.6-4.18 2.7-6 2.7-1.35 0-1.48-.06-1.97-.86zm57.2-.98c-.69-.63-.82-.92-.69-1.46.18-.7-.45-2-.98-2-.15 0-.6.23-.98.5-.4.28-1.24.59-1.9.7-.65.1-1.51.36-1.9.56-1.24.63-1.58.49-1.49-.62.07-.85.2-1.01.95-1.23.87-.25 1.07-.53.6-.83-.57-.35-.19-1.14 1.68-3.48 1.67-2.08 1.97-2.62 2.12-3.78.14-1.07.3-1.4.78-1.58.32-.13.94-.78 1.36-1.45 1-1.58 1.58-1.76 2.52-.78.9.93 1.3 3.27.55 3.27-.78 0-4.45 4.67-4.02 5.1.12.13.67.19 1.22.14.87-.07 1.03-.2 1.29-1.01.38-1.19 1.35-1.38 2.3-.45.35.35 1.03.84 1.5 1.08 1.47.75 1.4 2.4-.13 3.13-.61.3-.75.56-.87 1.67-.2 1.77-.57 2.36-1.84 2.87-.59.24-1.1.43-1.14.43-.04 0-.45-.35-.93-.78zm-77.82 0c-.55-.55-.75-2.2-.34-2.82a1.69 1.69 0 0 1 2.1-.58c1.09.52 1.37 1.61.73 2.81-.64 1.19-1.66 1.43-2.5.6zm53.48-.26c-2.57-.16-2.95-.35-2.96-1.5 0-.36.46-.93 1.26-1.57 3.38-2.7 4.91-4.8 4.31-5.9-.32-.6-.93-.75-1.21-.3-.1.16-.06.42.09.6.51.64.46 1.38-.13 1.85-.53.42-.68.43-1.5.1-1.1-.47-2.15-2.39-1.88-3.45.2-.82 1.96-2.47 2.87-2.7 1.02-.25 2.5.37 3.63 1.54.81.84 1.02 1.26 1.02 2.02 0 1.58-.7 3.75-1.57 4.82-.44.55-.8 1.08-.8 1.17 0 .1.62.1 1.38 0 1.5-.17 1.8-.05 2.29.86.7 1.34-1.15 2.78-3.44 2.66l-3.36-.2zM81.8 86.5c-.77-.68-.98-2.24-.39-2.92.8-.93 1.53-.97 2.46-.13.81.72.83.78.54 1.86-.43 1.59-1.55 2.1-2.6 1.19zm8.68-.94c-.81-.4-1-1.55-.41-2.45.52-.8 1.27-.83 2.29-.1.9.65.97 1.24.22 2.2-.6.76-1.1.85-2.1.35zm22.84.07c-1.16-.46-1.33-1.63-.4-2.7.56-.66 1.39-.58 2.24.2.86.8.86.82.2 1.91-.54.88-1 1.01-2.04.6zm51.9-.52c-3.3-.9-4.78-1-5.96-.4-.97.51-1.75.18-2.01-.86-.16-.6 0-.86 1.11-1.84a6.1 6.1 0 0 1 1.6-1.14c.15 0 1.03-.72 1.95-1.61 1.91-1.87 2.46-3.14 1.7-3.97-.82-.9-1.71-.47-1.15.57.22.42.22.75-.01 1.3-.52 1.26-2.27 1.23-3.64-.05-.45-.43-.6-.86-.6-1.8 0-1.48.49-2.02 2.74-3.05 2.5-1.14 4.43-.54 5.37 1.66.89 2.09.21 4.48-1.75 6.14-1.06.91-1.37 1.58-.73 1.63.18.02 1.13.05 2.11.08 1.53.03 1.88.14 2.47.72.53.53.63.83.5 1.39-.1.4-.38.82-.62.95-.72.38-2.22.52-3.08.28zm25.8-.45c-.29-.38-.53-.82-.53-1 0-.38 1.37-1.66 2.82-2.62 1.35-.9 3.53-3.66 3.53-4.47-.01-1.62-1.24-1.63-1.37-.01-.07.85-.18 1.02-.74 1.08a2.9 2.9 0 0 1-1.5-.45 2.42 2.42 0 0 1-.66-3.41c.52-.72 3.33-2.43 4-2.43.65 0 2.63 1.91 2.94 2.84.65 1.96.15 3.77-1.73 6.31-.39.52-.13.63 1.86.76 1.33.08 1.91.24 2.16.58.62.85.41 1.52-.72 2.29-.52.36-1.28.45-3.83.45-2 0-3.65.14-4.43.38-1.23.38-1.26.37-1.8-.3zm-48.58-.28c-.42-.29-.9-1.28-.9-1.88 0-.5 1.13-1.63 1.63-1.63.12 0 .46.24.76.53 1.29 1.3-.03 3.94-1.49 2.98zm77.88 0c-.52-.12-1.25-1.36-1.25-2.14 0-.82-.67-1.21-1.52-.89-1.47.56-3.2.56-3.91 0-1.14-.9-1.02-1.21 1.89-5.24.9-1.24 1.98-2.97 2.43-3.85.89-1.78 1.2-2.11 2.18-2.36.47-.12.8-.03 1.08.3.73.86.72 1.3-.07 2.48a30 30 0 0 0-1.6 2.84 6.15 6.15 0 0 1-1.32 1.94c-.68.36-.64 1.3.06 1.3.95 0 1.5-.49 1.69-1.46.12-.64.38-1.04.81-1.24.82-.37 1.35.03 1.98 1.5.25.6.65 1.23.9 1.43.84.7.44 2.26-.74 2.88-.28.14-.64.65-.8 1.13-.32.96-1.1 1.55-1.8 1.38zm-85.62-.42c-.58-.7-.66-2-.16-2.56 1-1.1 2.5-.39 2.5 1.17 0 1.4-1.56 2.33-2.34 1.39zm15.39-.18c-.8-.32-1.04-1.41-.5-2.25.46-.7 1.18-.83 2.03-.38.74.4.7 1.95-.08 2.49-.66.46-.65.46-1.45.14zm55.69-.6c-.8-1.22-.78-1.9.05-2.53.95-.7 1.64-.73 2.22-.09.59.66.56 2.23-.05 2.79-.7.63-1.76.55-2.22-.16zm-31.49-.35c-.48-1.06.2-2.09 1.39-2.09.75 0 .95.13 1.16.73.22.6.15.83-.37 1.38-.82.88-1.77.88-2.18-.02zm8.35.42c-.31-.12-.67-.39-.79-.59-.12-.2-.64-.48-1.15-.62-1.87-.52-1.04-2.1 1.26-2.4.92-.13 1.1-.05 1.9.85.7.8.83 1.13.7 1.8-.09.43-.19.82-.22.85-.29.23-1.23.3-1.7.11zm44.52-.41c-.62-.62-.52-1.78.22-2.47.58-.55.7-.57 1.39-.25.9.43 1.12 1.54.5 2.5-.49.73-1.49.84-2.11.22zm16.42-.33c-.78-.86-.54-1.53.85-2.38 1.58-.97 4.7-3.86 5.19-4.8.55-1.07.6-2.16.1-2.48-.62-.4-1.28.21-1.28 1.16 0 2.17-2.69 2.02-3.62-.2-.36-.87-.34-.97.28-1.8 1.05-1.36 3.05-2.58 4-2.42 1.6.26 3.26 1.17 3.72 2.05.39.76.4 1.04.1 2.34-.4 1.75-.65 2.28-1.48 3.17-1.23 1.33-.52 1.92 1.87 1.6 1.71-.24 2.4-.04 2.66.79.26.8-.32 1.6-1.54 2.13-.83.36-1.77.47-3.88.47-1.88 0-3.18.13-4.04.42-1.64.56-2.39.54-2.93-.05zm-8.62-.75c-.67-.85-.67-.82-.02-1.88.6-.97 1.04-1.06 2.14-.4 1 .58 1.17 1.17.65 2.17-.57 1.1-1.95 1.15-2.77.11zM40.32 65.67c-.36-.36-.64-.92-.64-1.26.02-1.12.49-4.3.9-6.16.23-1.02.36-2 .29-2.18-.07-.18-.49-.33-.94-.33-.45 0-.87-.17-.95-.38-.31-.8 1.44-3.27 2.86-4.01 1.86-.98 2.77.03 2.48 2.74L44 57.06c-.07.66-.23 1.6-.36 2.12-.36 1.42-.26 4.98.16 5.32.49.4.45.67-.17 1.3-.78.77-2.48.71-3.32-.13zm62.98-1.5a8.73 8.73 0 0 0-2.68-.36c-1.14.2-2.13-.3-2.3-1.16-.17-.85.4-1.5 2.14-2.42.83-.44 1.28-.86 1.34-1.26a.91.91 0 0 1 .66-.73c.79-.2 1.81-1.75 1.86-2.82.04-.77-.04-.87-.62-.87-.6 0-.66.1-.7 1.25-.04 1.94-.86 2.55-2.18 1.62a3.03 3.03 0 0 1-1.1-3.1c.27-1.2 1.8-2.62 3.27-3.07.88-.27 1.16-.23 2.18.26 1.8.87 2.3 1.68 2.18 3.43-.08 1.17-.32 1.79-1.22 3.13a8.53 8.53 0 0 0-1.1 2.04c0 .21.36.42.85.5l1.82.28c1.3.2 1.92.93 1.7 1.97-.41 1.84-2.47 2.28-6.1 1.3zm76.88 0c-.68-.4-.81-.65-.81-1.51 0-1.35.83-2.42 1.85-2.42.86 0 1.85 1.04 1.85 1.95 0 .8-.9 2.18-1.54 2.34-.29.08-.9-.08-1.35-.35zm14.15-.29a3.2 3.2 0 0 1-.4-1.55c0-1.37-.49-1.67-2.38-1.48-1.5.16-1.58.14-2.24-.64a3.45 3.45 0 0 1-.68-1.04c0-.66.66-1.7 2.03-3.2 2.2-2.4 3.64-4.2 4.14-5.16.83-1.61 3.1-1.77 3.1-.21 0 .83-.55 1.7-2.24 3.6-1.93 2.15-2.59 3.08-2.4 3.39.3.48 1.12.28 1.56-.4.52-.79 1.42-.86 2.3-.17.35.27.94.56 1.32.65 1.61.4 1.6 2.57-.03 3.14-.9.31-1.31.92-1.31 1.92 0 1.5-1.95 2.31-2.77 1.15zm-103.46-.13c-1.37-.33-1.8-1.43-1.03-2.6.78-1.2 3.01-.46 3.01 1 0 .6-.87 1.82-1.27 1.76l-.71-.16zm64.79-.48c-.56-.85-.17-1.86.86-2.25.87-.34 1.86.23 2.1 1.21.4 1.56-2.06 2.42-2.96 1.04zm13.13-.03c-.9-.5-1.42-.62-2.12-.5-2.7.47-2.93.47-3.45 0-1.06-.96-.67-1.87 1.49-3.46a8.92 8.92 0 0 0 1.7-1.43c0-.11.35-.34.78-.52 1.05-.44 2.95-2.52 2.76-3.02-.2-.5-.84-.74-1.47-.54-.4.13-.47.32-.34 1.02.13.7.05.93-.46 1.26-.88.58-1.67.2-2.35-1.14-.53-1.04-.54-1.17-.16-1.97a4.59 4.59 0 0 1 3.35-2.36c1.49-.22 2.44.13 3.6 1.33 1.54 1.59 1.12 3.59-1.27 6.03-1.83 1.86-1.77 1.95.96 1.5 1.33-.21 1.65-.18 2.06.18 1.45 1.32-.66 4.35-3 4.3a5.65 5.65 0 0 1-2.08-.68zm36.04.02c-2.13-1.05-2.8-2.76-1.48-3.8.88-.7.95-.69 2.23.15.98.66 1.13.68 2.08.37 1.48-.5 1.61-.61 1.78-1.68l.16-.97h-1.55c-1.73-.01-2-.12-2.47-1.02-.48-.9-.19-1.32 1.45-2.05 1.05-.46 1.46-.78 1.4-1.08-.14-.7-.6-.68-1.38.04-.87.8-1.57.85-2.28.14-.63-.63-.67-1.34-.14-2.37.7-1.35 1.62-1.87 3.36-1.87 1.44 0 1.65.08 2.62 1 1.33 1.23 1.73 2.63 1.11 3.9-.38.82-.37.93.12 1.76.78 1.29.98 3.61.4 4.49-1.87 2.8-2.47 3.25-4.82 3.53-.94.11-1.49 0-2.59-.54zm-155.75-.17c-.53-.75-.54-2.42-.02-2.85.56-.47 1.69-.42 2.2.1.65.65.55 2.24-.19 2.84-.81.66-1.49.63-2-.1zm14.71-.12c-.92-.92-.9-1.55.12-2.5.52-.49.77-.55 1.33-.35.38.14.87.5 1.08.83.36.54.31.66-.67 1.7l-1.05 1.13zm9.8.42c-1.63-.34-2.34-1.58-1.64-2.89.14-.27 1.25-1.2 2.45-2.08 2.26-1.64 3.48-3.1 3.32-3.92-.06-.31-.32-.48-.75-.48-.56 0-.67.14-.74.92-.15 1.57-1.19 2.26-2.41 1.6-1.14-.6-1.36-3.16-.34-4.04.25-.21 1-.7 1.67-1.1 2.47-1.42 4.62-.64 5.2 1.9.44 1.9.07 2.94-1.75 4.88-.51.54-.84 1.07-.74 1.18.1.1.79.15 1.52.11 1.44-.07 2 .22 2.39 1.24.4 1.04.01 1.81-1.21 2.46-1.03.55-1.3.58-2.84.35a9.84 9.84 0 0 0-2.48-.1c-.43.08-1.17.07-1.65-.03zm40.34-.2c-.6-.65-.56-1.52.09-2.16.74-.74 1.7-.67 2.36.17.7.89.69 1.2-.06 1.9s-1.8.74-2.4.1zm117.03-.3a2.56 2.56 0 0 0-1.13-.27c-.4 0-1.05-.21-1.44-.47-.54-.35-1.27-.46-3.05-.46-2.48 0-2.83-.18-2.84-1.36 0-.53.5-1.04 3.08-3.14 1.15-.93 2.6-3.8 2.34-4.62-.33-1.05-1.98-.51-1.98.65 0 .76-.5 1.2-1.34 1.2-2.25 0-1.99-3.47.38-4.96 1.06-.68 1.09-.68 2.3-.25.69.25 1.42.44 1.64.44.22 0 .73.44 1.13.97 1 1.32 1 2.86 0 4.99-.4.87-.97 1.91-1.25 2.3-.28.4-.44.85-.35 1 .09.15.8.27 1.56.27 1.55 0 3.12.81 3.3 1.7.13.69-.44 1.63-1.2 1.97-.76.35-.66.35-1.15.03zm-174.46-.6c-.75-1.2-.76-1.74-.06-2.45.77-.76 1.39-.83 2.22-.25 1 .7.74 2.27-.49 2.9-1 .52-1.22.5-1.67-.2zm158.22-.57c-.54-1.15-.54-1.57.04-2.07 1.24-1.1 2.58-.76 2.86.72.25 1.32-.4 2.25-1.58 2.25-.75 0-.96-.14-1.32-.9zm47.55-.38c-.2-.2-.35-.46-.35-.6 0-.13-.18-.24-.4-.24-.22 0-.4.13-.4.29 0 .19-.36.22-1.05.1a2.9 2.9 0 0 0-1.89.25c-1.11.55-1.6.53-2.3-.12-1.07-1-.69-1.75 1.85-3.66 2.32-1.74 3.93-3.58 3.93-4.49 0-1.05-.62-1.53-1.54-1.2-.66.24-.7.36-.63 1.5.07 1.15.02 1.27-.65 1.52-.86.33-1.85-.26-2.44-1.45-.3-.63-.29-.9.14-2.08.48-1.33.51-1.36 2.31-1.98 2.29-.78 3.28-.64 4.71.7.85.8 1.08 1.21 1.2 2.17a5.36 5.36 0 0 1-2.08 4.5c-1.5 1.2-1.38 1.68.36 1.46 2.14-.27 2.34-.23 3.15.54.84.8.95 1.55.36 2.4-.32.46-.72.58-2.16.65-1.22.06-1.88-.02-2.12-.26zm-24.43-.31c-1.04-1.05-.28-2.91 1.2-2.91.7 0 1.71.83 1.71 1.4 0 .43-1.63 2.04-2.06 2.04-.17 0-.56-.24-.85-.53zm8.75-.7c-.68-.87-.69-1.28-.02-1.95.6-.59.98-.64 1.97-.27.95.36.94 1.62-.02 2.37-.91.72-1.27.7-1.93-.15zm25.44.39c-1.19-.33-1.57-1.2-1-2.3.56-1.08 1.86-1.16 2.79-.18.55.6.58.73.27 1.47-.43 1.04-.97 1.3-2.06 1zm-115.89-17.7c-.8-.32-1.49-1.93-1.12-2.62.15-.27.27-1.3.27-2.26 0-.96.13-2 .29-2.29.35-.65.1-1.8-.39-1.8-.62 0-1.75-1.08-1.75-1.67 0-.69 2.95-3.63 3.64-3.63.93 0 1.65.77 1.65 1.75 0 .51.13 1.16.28 1.45.2.37.18 1.27-.06 3.1a34.29 34.29 0 0 0-.28 4.38c.05 1.94-.35 3.12-1.25 3.6-.58.31-.49.31-1.28 0zm28.1-.97c-.48-1.03-.52-2.02-.23-5.7.17-2.14.07-2.34-.93-1.72a1.36 1.36 0 0 1-2.07-1.02c-.09-.89-.08-.9 2.85-3.02 2.83-2.05 3.52-1.32 3.43 3.64-.03 1.86-.05 4.2-.03 5.21.05 2.28-.61 3.6-1.8 3.6-.6 0-.83-.2-1.21-1zm7.85.3a2.8 2.8 0 0 1-.55-1.47c0-.6.19-.85.92-1.2 1.13-.54 2.03-.22 2.63.92.36.71.35.83-.19 1.6-.77 1.1-2.01 1.16-2.81.14zM71 42.5c-1.3-.5-1.34-.96-.76-6.68.18-1.75-.14-2.08-1.5-1.52-1.02.43-1.96.04-2.2-.91-.23-.94.21-1.67 1.32-2.13A8.69 8.69 0 0 0 70 29.68c.66-.65 1.37-1.2 1.6-1.2 1.2 0 2.41 1.76 1.89 2.74-.33.6-.48 6.2-.22 7.92.3 2-.95 3.88-2.26 3.37zm65.03.08c-1.21-.1-1.44-.2-1.78-.88-.8-1.52-.37-2.27 2.76-4.88 2.05-1.7 2.65-2.66 2.42-3.85-.2-1.07-1.26-.72-1.4.48a1.5 1.5 0 0 1-.82 1.1c-.72.4-.77.38-1.52-.46-1.3-1.44-.92-3.24.96-4.54a3.66 3.66 0 0 1 4.38.4c1 .96 1.55 1.99 1.55 2.9 0 .9-1.21 3.47-2.17 4.58-1.07 1.24-.68 1.63 1.64 1.63 1.38 0 1.87.1 2.21.48.6.66.55 1.21-.16 2.03-.52.6-.84.7-2.58.79-1.09.06-2.46.15-3.04.22-.58.06-1.68.06-2.45 0zm-89.57-.86c-.6-.72-.65-.9-.4-1.65.31-.87 1.84-2.53 4-4.32 1.4-1.16 2.04-2.13 2.04-3.14 0-1.54-1.2-1.1-1.45.53-.17 1.16-.89 2.21-1.5 2.21-.16 0-.75-.46-1.32-1.02-.87-.88-1.03-1.2-1.03-2.16 0-1.03.15-1.28 1.58-2.71l1.58-1.58 1.26.18c2.07.3 2.92.66 3.77 1.63.64.72.81 1.17.81 2.07 0 1.65-.55 2.73-2.23 4.38a9.45 9.45 0 0 0-1.47 1.65c0 .12.48.21 1.07.21.6 0 1.34.13 1.65.3.83.42 1.75 1.6 1.76 2.21.01 1.36-1 1.72-4.81 1.67-1.64-.02-3.35.05-3.8.16-.72.16-.93.07-1.51-.62zm30.04.18c-.94-1.01-1-1.9-.18-2.54.9-.7 1.45-.71 2.31-.03.99.77 1.12 1.44.45 2.37-.7.98-1.77 1.07-2.58.2zm7.34-.13c-.49-.62-.55-.95-.42-2.18.25-2.42.25-6.49 0-6.47-.13 0-.57.11-.97.23-.89.26-1.52-.18-1.52-1.06 0-.44.49-1 1.66-1.96 2.1-1.7 2.74-1.89 3.51-1 .56.66.58.86.53 6.26-.05 5.46-.07 5.6-.67 6.25-.8.85-1.41.83-2.12-.07zm20.64 0a2.52 2.52 0 0 1-.53-1.26c0-.62.24-.88 2.5-2.8 1.73-1.45 2.3-2.2 2.85-3.77.67-1.9.05-2.79-1.41-2-.42.22-.5.44-.36 1.05.5 2.3-1.85 2.76-2.78.53-.56-1.37.06-3.04 1.56-4.13 1.7-1.23 2.18-1.3 3.72-.52 1.58.8 2.14 1.58 2.42 3.34.25 1.62-.3 3.1-1.88 4.96a7.16 7.16 0 0 0-1.06 1.47c0 .12.76.14 1.68.04 1.65-.18 1.7-.17 2.38.65.82.97.87 1.48.22 2.33-.46.59-.64.62-4.63.7l-4.15.08-.53-.67zm42.5-.17c-.6-1.26-.54-2.17.16-2.66.81-.57 1.34-.51 2.01.2.76.81.73 1.9-.07 2.7-.91.92-1.59.84-2.1-.24zm-29.65.03c-.68-1.03-.8-2.25-.3-2.82.67-.73 1.39-.82 2.1-.26.85.67 1.06 1.63.58 2.76-.32.77-.52.92-1.18.92-.55 0-.93-.2-1.2-.6zm7.2-.26c-.78-1.18-.82-1.78-.18-2.47 1.2-1.27 2.89-.54 2.89 1.26 0 1.66-1.87 2.5-2.71 1.21zm76.26.41c-1.99-.73-1.6-2.72.54-2.72 1.13 0 1.58.48 1.58 1.7 0 .89-1.08 1.4-2.12 1.02zm-111.23-.58c-.64-.7-.46-1.91.34-2.3.65-.33 2.15-.02 2.15.43 0 .12.07.4.15.62.2.51-1 1.76-1.69 1.76-.27 0-.7-.23-.95-.51zm73.8-.08c-.62-.9-.5-1.72.3-2.15 1.66-.87 3.16.77 1.93 2.09-.76.8-1.68.83-2.22.06zm-102.74 0c-.76-.76-.2-2.43.9-2.7.84-.22 1.95.67 1.95 1.57 0 1.17-2.01 1.97-2.85 1.13zm35.87-.35c-.7-1.55.92-3.04 2.31-2.13 1.35.89.56 2.8-1.16 2.8-.64 0-.91-.16-1.15-.67zm76.4.11c-.87-.69-.8-1.44.18-2.17.69-.51.74-.52 1.23-.07.76.68.94 1.7.4 2.3-.58.64-.92.63-1.8-.06zM88.33 23.3c-.46-.56-.5-5.22-.05-5.68.5-.5 1.57-.05 1.94.82.58 1.4-.27 5.3-1.15 5.3-.2 0-.54-.2-.74-.44zm147.26-1.7c-.24-.4.64-1.3 1.1-1.13.53.2.46.82-.14 1.14-.64.34-.74.34-.96-.01zm-48.19-2.25a3.94 3.94 0 0 0-1.82-.37c-1.46-.01-1.97-.33-1.97-1.25 0-.34.03-.62.07-.63l2.77-.14c1.93-.1 2.88-.03 3.31.21.33.2 1.14.35 1.8.35 1 0 1.2.08 1.26.56.11.76-.61.99-1.42.46-.59-.39-.7-.4-1.11-.03-.25.23-.9.59-1.43.8-.83.35-1.04.36-1.46.04zm13.94-1.46a47.22 47.22 0 0 0-6.16-.2c-1.38.07-2-.55-1.55-1.53l.33-.7 2.88.16c1.6.09 2.95.06 3.03-.07.08-.12-.03-.56-.24-.97-.52-1-.12-1.43 1.33-1.43.63 0 1.43-.11 1.79-.25 1.22-.46 9.21-.29 10.58.23.34.13 1.28.32 2.1.42 1.89.24 2.45.62 2.22 1.5-.13.54-.37.7-1.16.82-1.5.22-8.3.01-9.06-.27a5.16 5.16 0 0 0-1.99-.06c-.78.1-1.01.2-.57.22.75.04 1.74.92 1.75 1.56.01.42-1.11.87-2.06.82-.39-.02-1.84-.13-3.22-.25zm1.65-2.27a1.02 1.02 0 0 0-.66 0c-.18.07-.03.13.33.13.37 0 .52-.06.33-.13zM47.08 155.75c0-.9-.77-1.5-2.91-2.3a10.7 10.7 0 0 1-1.87-.9c-.38-.26-1.45-.73-2.38-1.05a26.4 26.4 0 0 1-2.63-1.04c-1.69-.85-3.18-1.4-3.34-1.25-.28.28 4.56 3.1 5.34 3.1.19 0 .68.28 1.09.61.4.34 1.22.89 1.8 1.22.59.33 1.16.78 1.29 1 .27.47 2.2 1.36 3.01 1.39.5.01.6-.13.6-.78zm242.9-2.88a23.93 23.93 0 0 1 1.54-2.75c.16-.16.3-.47.3-.69 0-.21.15-.57.34-.8a8 8 0 0 0 .8-1.93c.26-.83.58-1.59.72-1.67.32-.2.34-1.19.02-1.19-.13 0-.43.3-.67.67-.24.36-.6.66-.82.66-.67 0-2.5 2.04-2.5 2.8 0 .77-.76 3.25-1.14 3.75a6.5 6.5 0 0 0-.37 2.07c-.15 2.35.21 2.16 1.78-.92zM11.88 33.85c0-.18.4-.52.86-.76a11.9 11.9 0 0 0 2.18-1.8c2.88-2.92 5.35-5.09 6.66-5.85 1.5-.87 6.45-5.08 6.45-5.5 0-.13-.33-.65-.73-1.14l-1.45-1.78a7.3 7.3 0 0 1-.98-1.59c-.35-.91-.97-.9-1.2.02-.24.97-.6 1.35-1.61 1.78-.49.2-.94.63-1.05.98-.1.34-.46.92-.79 1.28-.82.9-4.04 5.22-4.41 5.92-.17.3-1 1.51-1.85 2.67a12.46 12.46 0 0 0-1.54 2.45c0 .18-.1.34-.23.34-.2 0-1.36 3.23-1.36 3.78 0 .1.24.04.53-.14.3-.18.53-.48.53-.66zm2.2-28.12c-.07-.3-.36-.53-.63-.53-.4 0-.5.2-.5.88 0 .49.08.97.2 1.08.31.32 1.08-.85.93-1.43z"/>
</svg>
