<?xml version="1.0" encoding="utf-8"?>
<svg xmlns="http://www.w3.org/2000/svg" height="13" viewBox="0 0 281 13" width="281">
	<title>A diagram consisting of a single line of text, reading “e . a . a . . etretat . a . .”.</title>
	<path d="M48.95 12c-2.7-1.07-2.73-4.57-.07-7.26 1.37-1.4 1.77-1.51 4.17-1.24 1.51.17 1.86.3 1.94.71.1.54-.43 2.5-.8 2.92-.12.14-.21.54-.21.9 0 .63.01.64.51.18.63-.57 1.34-.36 1.34.39 0 .78-1.22 3.08-1.73 3.27-.77.3-1.44.18-1.96-.34-.5-.5-.52-.5-1.37.13-.97.72-.91.7-1.82.35zm1.57-1.8c.69-.37 1.34-2.18 1.34-3.72 0-1.35-.18-1.53-1.04-1.07-.85.46-1.86 4.03-1.32 4.67.36.44.4.45 1.02.11zm47.67 1.6c-.8-.79-1.68-3.45-1.53-4.58.19-1.46 1-2.9 1.98-3.56.74-.5 1.18-.57 2.98-.51 1.16.03 2.24.2 2.4.36.22.21.1.95-.4 2.76-.76 2.67-.84 3.24-.43 3 .14-.1.26-.4.26-.68 0-.54.91-1.17 1.33-.91.6.37-.03 2.53-1.04 3.54-.58.58-1.97.74-2.66.3-.27-.17-.65-.08-1.22.27-1.03.63-1.05.63-1.67.02zm2.29-3.27c.33-.42.57-2.97.31-3.4-.58-.94-1.3.78-1.3 3.11 0 .67.55.84.99.3zm95.38 3.24c-1.15-.47-1.27-1.32-.5-3.7.86-2.65.86-2.85.03-3.22-.36-.17-.66-.38-.66-.48 0-.42.72-1.03 1.32-1.1.51-.08.69-.3.85-1.1.33-1.57.67-2.04 1.51-2.04 1.07 0 1.38.5 1.19 1.91-.1.77-.06 1.26.13 1.38.16.1.3.48.3.84 0 .5-.17.68-.77.8-.68.14-.83.36-1.32 1.92-.31.97-.56 1.91-.56 2.09 0 .54.49.36.95-.34.47-.72.9-.83 1.36-.36.49.5-.43 2.01-1.75 2.89-1.3.86-1.24.84-2.08.5zM.58 11.17C.1 10.66 0 10.22 0 8.82c0-1.5.11-1.9.83-2.99C2.48 3.36 5 2.47 6.25 3.94c.35.4.63.94.63 1.21 0 .85-1.28 2.07-2.72 2.6-1.3.49-2.2 1.43-1.88 1.96.29.46 1.02.16 2.14-.86 1.26-1.17 1.76-1.23 1.86-.23.07.66-1.13 2.16-2.27 2.82-.97.57-2.78.42-3.43-.28zm3.66-5.35c.18-.23.25-.49.15-.6-.22-.21-1.01.25-1.16.69-.15.45.61.38 1-.1zm21.17 5.44c-.6-1.12.06-2.66 1.15-2.66.72 0 1.75.9 1.74 1.53-.03 1.38-2.29 2.26-2.9 1.13zm49.38.03a2.52 2.52 0 0 1-.44-1.45c0-1.02.5-1.5 1.58-1.5.76 0 1.86 1.15 1.86 1.95 0 1.3-2.1 2-3 1zm49.37.22c-.92-.38-.78-2.12.21-2.65.61-.33 1.76.16 1.98.83.22.7-.45 1.94-1.07 2a2.8 2.8 0 0 1-1.12-.18zm9.39-.15c-.9-.49-.97-1.46-.15-2.22.64-.6 1.79-.71 2.28-.22.54.54.38 1.98-.27 2.44-.72.5-.93.5-1.86 0zm29.19-.28c-.67-.85-.67-.7 0-3.33.55-2.07.55-2.17.1-2.5-.7-.5-.8-.46-1.42.59-.4.66-1 1.14-2.07 1.63-1.9.86-2.24 1.28-1.69 2.15.33.52 1.12.19 2.31-.96 1.01-.97 1.03-.98 1.12-.35.3 2.12-3.31 4.05-5.03 2.7-.55-.44-.75-.89-.89-1.98a3.7 3.7 0 0 1 .5-2.73c1.27-2.5 3.42-3.72 5.37-3.01.49.17 1.03.22 1.21.1.19-.12.63-.21 1-.21.57 0 .7-.18.98-1.3.38-1.55.6-1.81 1.53-1.81 1.07 0 1.36.43.98 1.47-.42 1.17-.4 1.5.14 2.1.44.48.44.53-.05.88-.28.2-.65.38-.83.38-.34 0-.86 1.74-1.07 3.57l-.12 1.06.65-.77c.42-.5.8-.7 1.07-.6.75.28.48 1.38-.64 2.52-1.29 1.34-2.31 1.46-3.15.4zm-3.48-5.24c.61-.65.56-1.3-.09-1.05-.3.11-.95 1.2-.95 1.57 0 .31.5.06 1.04-.52zm22.6 5.67c-.83-.33-1-1.79-.47-3.97.24-1 .37-2.03.27-2.29-.15-.39-.33-.3-1.21.6a6.46 6.46 0 0 1-2.12 1.43c-1.85.6-2.94 2.64-1.42 2.64.49 0 1.02-.34 1.71-1.09 1.02-1.1 1.83-1.25 1.83-.34 0 .77-2.17 2.7-3.26 2.9-3.61.67-4.38-3.68-1.23-6.98 1.35-1.4 3-1.77 4.2-.93.45.31.66.35.8.12.1-.17.53-.4.94-.51.6-.17.82-.44 1.1-1.44.43-1.43 1.06-1.9 2.06-1.52.54.2.68.43.67 1.12 0 .48-.1 1.04-.24 1.24-.15.25-.09.6.19 1.03.4.62.4.67-.43 1.34-.86.7-1.63 2.75-1.62 4.27v.66l.6-.71c.32-.4.9-.84 1.3-.99.4-.15.74-.47.74-.71 0-.25.31-1.07.7-1.84.92-1.81 2.52-2.72 4.02-2.28.53.15 1.32.26 1.76.23.76-.05.8 0 .75 1a8.56 8.56 0 0 1-.66 3.2c-.15.31-.23.9-.18 1.33l.09.77.6-1.03c.79-1.32 1.3-1 .87.56-.5 1.9-2.43 3.11-3.4 2.14-.23-.23-.47-.23-.99 0-.83.38-2.1.4-2.76.06-.27-.15-.62-.65-.8-1.13l-.3-.86-.71.82c-1.16 1.34-2.13 1.67-3.4 1.16zm8.03-2.35a7.9 7.9 0 0 0 .88-2.33c.27-1.25.25-1.53-.1-1.88-.38-.38-.47-.37-.93.05-.85.77-1.68 3-1.47 3.95.33 1.55.68 1.59 1.62.2zM178.16 5.6c.3-.39.45-.79.35-.88-.25-.25-1.16.61-1.32 1.26-.19.7.3.51.97-.38zm40.7 5.75c-1.15-.81-.5-3.02.9-3.02a1.6 1.6 0 0 1 1 2.89c-.84.65-1.12.67-1.9.13zm22.8.16c-2.53-1.03-2.1-5.63.74-7.68 1.03-.75 1.2-.78 3.42-.72 1.28.04 2.4.15 2.5.24.1.1-.04.92-.28 1.84-.7 2.62-.74 2.87-.42 2.87.16 0 .3-.13.3-.28 0-.16.26-.25.59-.2.86.12.74 1.48-.24 2.71-.87 1.11-1.72 1.41-2.82 1-.61-.24-.94-.22-1.52.09-.84.43-1.43.46-2.26.13zm2.48-2.23c.28-.35.66-1.32.84-2.14.3-1.35.29-1.55-.13-2.01-.46-.51-.47-.51-1.08.06-.6.56-.69.88-1.02 3.47-.14 1.13-.1 1.25.37 1.25.29 0 .75-.28 1.02-.63zm-76.3 1.82c-.18-.47-.04-1.29.58-3.3.67-2.24.74-2.65.42-2.65-.17 0-.3.18-.3.4 0 .53-1.01 1.51-1.34 1.3-.45-.27.25-2.16 1.18-3.22.58-.67 1.14-.74 2.14-.29.52.24.75.24.99 0 .74-.74 2.48-.16 2.62.88.17 1.33-.9 2.33-2.02 1.9-.3-.12-.62.28-1.2 1.46-.43.9-.78 1.8-.78 1.99a3.3 3.3 0 0 1-.93 1.73c-.45.33-1.2.22-1.36-.2zm100.1-.04c-.1-.1-.18-.57-.18-1.05 0-1.67 2.22-2.32 2.72-.8.41 1.24-.11 2.03-1.35 2.03-.56 0-1.1-.08-1.2-.18zm9.34-.5c-.39-1.01-.32-1.37.33-1.82 1.2-.84 2.85-.18 2.85 1.13 0 1.02-.45 1.37-1.78 1.37-.99 0-1.18-.1-1.4-.68z"/>
</svg>
