<?xml version="1.0" encoding="utf-8"?>
<svg xmlns="http://www.w3.org/2000/svg" height="17" viewBox="0 0 219 17" width="219">
	<title>A diagram consisting of a single line of text, reading “En aval d’Étretat . a . .”.</title>
	<path d="M128.57 16.53c-1.1-.46-1.3-1.36-.66-2.97.27-.7.58-1.76.68-2.35.16-.97.1-1.13-.5-1.53-.57-.37-.64-.54-.4-.97.15-.3.54-.52.93-.52.36 0 .7-.15.76-.33.05-.18.3-.9.54-1.59.38-1.08.55-1.26 1.15-1.25 1.23 0 1.45.32 1.25 1.77-.14 1.02-.1 1.38.23 1.65.65.53.5 1.06-.41 1.45-.63.26-.96.66-1.33 1.64a7.37 7.37 0 0 0-.48 2.08v.8l.65-.73c1.03-1.17 1.97-.88 1.46.45a5.7 5.7 0 0 1-2.39 2.4c-.55.28-.81.28-1.48 0zm25.83.05c-1.24-.63-.8-2.84.57-2.84 1.3 0 2.12 2.32 1.03 2.9-.64.35-.8.35-1.6-.06zm-124.56-.34c-2.23-1.56-1.58-5.78 1.17-7.52 1.24-.79 2.56-1.04 2.87-.54.09.15.67.19 1.34.1l1.18-.16v.84c0 .46-.23 1.28-.5 1.82a9.1 9.1 0 0 0-.67 2.41c-.16 1.26-.14 1.4.2 1.11.23-.18.44-.59.49-.9.05-.38.3-.61.7-.67.57-.08.6-.02.44.8-.27 1.27-.98 2.4-1.8 2.86-.65.36-.8.35-1.53-.06-.73-.42-.88-.43-1.57-.07-.98.5-1.58.5-2.32-.02zm1.8-1.7c0-.34.25-.64.65-.8.39-.14.67-.46.67-.75 0-.28.17-.65.4-.83.42-.36.52-1.77.16-2.34-.37-.59-1.43-.24-1.94.64a6.8 6.8 0 0 0-.64 3.93c.2.8.7.9.7.14zm8.6 1.82c-.3-.16-.69-.49-.87-.71-.5-.62-.39-2.68.2-3.98.95-2.09.55-2.58-.67-.82-.86 1.24-1.6 1.31-1.52.15.07-1 .7-1.93 1.74-2.56 1.08-.65 1.53-.65 2.4.03.62.5.68.68.6 2.08a7.69 7.69 0 0 1-.53 2.4c-.65 1.3-.57 2.12.19 2.12.73 0 1.22-.51 2-2.04.7-1.4.7-2.24.02-2.86-1.05-.95-.4-2.47.92-2.14.87.22 1.58 1.56 1.2 2.26-.14.28-.27.84-.27 1.25-.01.97-1.52 3.75-2.38 4.38-.85.61-2.35.84-3.04.44zm6.9-.37c-1.71-1.84-.66-5.7 2.03-7.49.93-.61 1.1-.64 1.93-.34.5.18 1.24.31 1.64.28 1.66-.1 1.66-.1.6 3.32-.9 2.87-.92 3.04-.47 3.04.22 0 .47-.26.55-.6.08-.32.33-.83.56-1.12.4-.52.41-.52.8-.02.3.4.41.42.51.13a46.83 46.83 0 0 0 1.61-5.4c.1-.58.23-1.26.3-1.5.08-.28-.08-.5-.42-.61-.74-.24-.76-1.85-.03-2.24 1.33-.71 3.46-.11 3.46.97 0 .69-.82 3.27-1.53 4.84-.37.8-.82 2.1-1 2.9-.19.8-.43 1.75-.53 2.1-.27.87.43.62.89-.32.5-1.05 1.28-1.39 1.63-.72.56 1.03-1.42 3.45-2.82 3.45-.93 0-1.93-.76-1.93-1.46 0-.22-.12-.4-.27-.4-.14 0-.26.1-.26.23 0 .46-1.41 1.63-1.96 1.63-.32 0-.84-.2-1.18-.43-.55-.39-.64-.39-1.07 0-.74.67-2.32.55-3.05-.24zm3.24-1.97c.96-1.33 1.34-3.58.71-4.22-.6-.6-1.2-.15-2.05 1.58-.68 1.35-.96 3.11-.56 3.51.44.44 1.2.1 1.9-.87zm32.16 2.26c-.25-.63.08-1.21.68-1.21.8 0 1.35-1.4 2.58-6.48.75-3.08.75-3.31-.01-3.31-.46 0-.73-.19-.86-.58-.25-.79.76-1.62 1.71-1.41.62.13.74.02 1.2-1.1.84-2.05 1.94-2.78 2.53-1.67.31.58.05 1.26-.83 2.21-.61.66-.64 1.07-.05.85.57-.22 5.03-.24 5.38-.02.6.37-.12 4.34-.86 4.8-.35.22-.72-.41-.72-1.24 0-.36-.2-.93-.42-1.25-.35-.5-.66-.6-1.95-.6H89.4l-.43 1.36c-.51 1.57-.55 2.25-.17 2.5.4.24 1.56-.6 2.07-1.5.95-1.67 1.32-.58.6 1.8-.29 1-.6 2.14-.69 2.55-.22 1.08-1.02.84-1.2-.35-.11-.82-.22-.93-.9-.93-.7 0-.8.12-1.1 1.23-.16.67-.38 1.66-.48 2.18l-.18.96h1.66c2.06 0 3.07-.56 4.05-2.23.89-1.51 1.45-1.6 1.45-.2 0 1.1-.69 3.4-1.1 3.64-.22.14-5.84.17-7.9.05a6.4 6.4 0 0 0-1.51.16c-.67.16-.9.11-1.02-.21zm13.21-.3c-.58-.59-.65-.84-.51-1.73.1-.58.34-1.56.56-2.17.54-1.56.5-2.23-.15-2.44-.68-.22-.58-1.01.15-1.14.82-.16 1.45-.86 1.45-1.62 0-1.01.52-1.55 1.59-1.65 1.01-.1 1.06.06.64 2.1-.1.54-.05 1.01.15 1.25.43.52.15 1.2-.49 1.2-.37 0-.58.3-.82 1.25-.18.7-.48 1.8-.68 2.45-.49 1.61-.07 1.9.81.56.4-.6.82-1.09.93-1.09.47 0 .4.74-.18 1.91-.97 1.92-2.23 2.33-3.45 1.12zm5.27.5c-.5-.2-.4-1.35.35-3.63.67-2.06.78-3.81.13-2.1-.34.9-1 1.32-1.41.91-.16-.16 0-.8.42-1.72.73-1.6 1.5-2.04 2.8-1.58.5.18.88.14 1.41-.16.65-.36.8-.37 1.44-.01 1 .56 1.24 1.65.55 2.53-.4.52-.71.66-1.21.56-.86-.16-1.37.03-1.37.52 0 .21-.24.88-.53 1.48-.3.6-.53 1.3-.53 1.53 0 .47-1.15 1.86-1.5 1.82a2.53 2.53 0 0 1-.55-.15zm13.57-.18c-.65-.47-.6-2.72.12-4.67.67-1.83.67-1.85-.13-1.85-.53 0-.66-.14-.66-.67 0-.55.12-.66.78-.66.9 0 1.19-.4 1.46-2.05.2-1.25.95-1.68 1.97-1.14.62.34.7 1 .24 2.01-.25.54-.25.8 0 1.2.45.73.39.96-.33 1.14-.63.16-.92.82-1.73 4-.38 1.51.07 1.73.9.43.37-.6.84-1.09 1.03-1.09.2 0 .47-.39.62-.86.14-.48.67-1.42 1.17-2.1 1.14-1.58 2.08-1.9 4.6-1.61 2.15.25 2.1.11 1.19 3.25-.32 1.09-.64 2.25-.71 2.58-.22.96.4.69.91-.4.47-1 1.2-1.33 1.32-.6.04.22-.26 1-.66 1.72-.9 1.66-1.88 2.1-2.77 1.27-.6-.56-.6-.56-1.22-.05-1.03.83-2.1.66-3.19-.53l-.95-1.03-.99 1.03c-1.06 1.11-2.07 1.34-2.97.68zm8.5-2.56c.62-1.25.83-3.8.35-4.1-.97-.6-2.64 1.91-2.64 3.98 0 1.3.15 1.5 1.04 1.4.5-.06.82-.4 1.26-1.28zm55.52 2.6c-.92-.54-1.41-1.37-1.6-2.66a3.27 3.27 0 0 1 .4-2.39c1.16-2.23 3.2-3.64 4.69-3.22.4.11 1.22.22 1.8.23l1.06.02-.08 1.32a3.9 3.9 0 0 1-.34 1.58c-.5.52-.26 1.17.49 1.25 1 .12 1.07.99.21 2.45-.83 1.43-2.25 2.07-3.04 1.36-.42-.39-.54-.39-1.24-.03-.9.48-1.63.5-2.35.08zm2.58-2.25c.26-.44.6-1.49.75-2.33.23-1.27.22-1.6-.12-1.92-.6-.6-1.18-.21-1.8 1.19-1.23 2.8-.22 5.44 1.17 3.06zm3.1-.56c0-.19-.11-.27-.26-.18-.14.09-.26.42-.26.74 0 .47.05.5.26.18.14-.21.26-.55.26-.74zm23.09 2.71a1.29 1.29 0 0 1-.1-2.06c1.43-1.3 3 .57 1.62 1.95-.63.63-.77.64-1.52.11zM.05 16.18c-.2-.31.21-.86.9-1.2.62-.31.8-.77 1.72-4.15.25-.94.68-2.47.95-3.4.7-2.34.67-2.52-.3-2.32-1.02.2-1.36-.44-.63-1.16.44-.44 1.03-.5 5.1-.58 5.52-.1 5.43-.14 4.7 2.63-.54 2.03-.7 2.27-1.32 2.04-.29-.11-.44-.47-.44-1.04 0-.48-.2-1.12-.46-1.44C9.72 4.9 7.99 4.54 7.46 5 7 5.36 5.83 8.93 6.07 9.17c.39.39 1.65-.38 2.15-1.32 1.01-1.9 1.68-.91.86 1.26-.28.72-.56 1.73-.62 2.24-.07.52-.3 1.11-.52 1.33-.36.36-.43.36-.65 0a2.97 2.97 0 0 1-.26-1.25c0-.47-.11-.86-.25-.86-.13 0-.43-.07-.66-.16-.57-.22-1.13 1.17-1.25 3.07l-.1 1.46 1.28.08a4.6 4.6 0 0 0 4.68-3.12c0-.15.24-.27.53-.27.34 0 .53.17.53.5 0 .98-1.07 3.94-1.48 4.1-.62.24-10.11.2-10.26-.05zm18.12-.47c-.62-.79-.56-1.31.41-4.2.71-2.11.5-2.75-.57-1.74-.83.78-1.62 2.4-2.23 4.56-.45 1.63-.49 1.67-1.43 1.75-1.35.11-1.34-.19.13-4.4.59-1.7.6-2.17.09-2.17-.22 0-.4.1-.4.23s-.26.56-.57.95c-.46.6-.6.66-.79.34-.47-.84 1.32-3.1 2.44-3.1.27 0 .73.25 1.03.57l.53.58 1.03-.58c1.28-.71 1.63-.72 2.51-.03.86.68.91 1.68.17 3.62-.53 1.4-.68 2.45-.35 2.45.1 0 .5-.39.9-.86.56-.65.8-.79 1.04-.56.44.42.15 1.15-.9 2.3-1.11 1.21-2.23 1.32-3.04.29zm51.22-.05c-.8-.61-.96-.89-.97-1.75a6.15 6.15 0 0 1 1.51-4.14c1.15-1.35 2.2-1.89 3.44-1.79.97.08.99.06 1.45-1.36a8.5 8.5 0 0 0 .4-1.47l-.8-.35c-1.28-.55-.84-1.2.97-1.46 1.3-.18 1.62-.14 2.05.25.39.35.58.39.82.15.52-.52 1.66-.36 2.31.34.5.53.59.84.47 1.74-.21 1.55-1.74 3.1-2.69 2.74-.56-.22-.52-.62.1-1.29.53-.55.53-.56-.15-1.34-.97-1.13-.9-1.27-2.76 5.92-.3 1.2-.5 2.27-.4 2.36.08.09.51-.18.95-.6 1.37-1.32 1.8.16.53 1.79-.63.79-2.44 1.23-3.04.73-.27-.22-.52-.23-.9-.02-.95.5-2.27.33-3.3-.45zm3.1-1.45c.41-.63 1.21-3.42 1.21-4.22 0-.35-.2-.48-.76-.48-.66 0-.84.18-1.34 1.36-.77 1.78-.96 3.03-.55 3.53.47.57.99.5 1.44-.2zm35.33 1.7c-.46-.37-.63-.84-.72-1.99-.25-2.99 2.03-6 4.54-6 .8 0 1.75.94 1.75 1.72 0 .94-1.42 2.41-2.72 2.83-1.34.42-2.1 1.6-1.46 2.23.32.33.49.32 1.21-.04a3.68 3.68 0 0 0 1.3-1.2c.57-.95 1.14-1 1.14-.1 0 2.16-3.4 3.88-5.04 2.55zm3.13-4.96c.65-.46.8-1.44.2-1.44-.33 0-1.46 1.3-1.46 1.7 0 .3.67.16 1.26-.26zm104.9 4.87c-.56-.55-.38-1.5.36-1.99.62-.4.76-.41 1.39-.06.54.3.7.6.7 1.3 0 .89-.05.93-1.06 1-.6.05-1.2-.06-1.4-.25z"/>
</svg>
