<?xml version="1.0" encoding="utf-8"?>
<svg xmlns="http://www.w3.org/2000/svg" height="96" viewBox="0 0 388 96" width="388">
	<title>A diagram consisting of four lines of text with just vowels showing; the remaining letters are simply full stops.</title>
	<path d="M32.79 93.82c-.45-.45-.65-.99-.53-1.41l.39-1.38c.21-.75 1.34-1.26 2.45-1.11 1.64.21 2.15 2.66.82 3.9-.99.92-2.2.92-3.13 0zm33.56-.2c-.92-1.17-.92-2.27-.03-4.72.77-2.11.9-3.18.36-3.18-.18 0-.59.48-.89 1.06-.62 1.21-1.58 1.42-1.58.34 0-1.59.94-3 2.45-3.68 1.34-.6 1.6-.62 2.4-.17 1.38.77 1.5 1.92.52 5.03-.48 1.52-.74 2.87-.6 3 .14.14.33.06.41-.18.09-.23.47-.83.86-1.32.58-.73.84-.83 1.39-.53 1.17.62.84 2.03-.86 3.73-1.88 1.88-3.29 2.07-4.43.61zm-64.3-.4c-1.3-1.4-1.44-2.11-.94-4.64.39-1.94.69-2.5 2.16-4.01l1.7-1.75 2.9.24c1.59.14 3.03.39 3.21.56.2.19.08 1.42-.29 3.06-.94 4.24-.95 4.34-.57 4.34.2 0 .45-.4.58-.9.14-.59.42-.86.8-.78 1.27.26-.22 4.1-1.8 4.65-.8.27-1.12.2-1.77-.42-.8-.74-.8-.74-1.68-.07a3.2 3.2 0 0 1-4.3-.28zm4.06-1.78c1.54-1.7 2.25-5.86 1.07-6.31a1.46 1.46 0 0 0-1.14.14c-.8.5-2.28 4.86-2.01 5.93.26 1.04 1.25 1.16 2.08.24zm9.07 2.12c-1.03-.83-1.05-3.08-.06-5.88.53-1.48.64-2.2.38-2.47-.43-.41-1.74.94-1.74 1.79 0 .27-.24.49-.53.49-.7 0-.7-1.49 0-2.84.3-.57.58-1.04.63-1.05.04 0 .71-.23 1.49-.5 1.31-.46 1.46-.44 2.2.25 1.01.94 1.03 2.39.05 5.6-.41 1.35-.63 2.57-.5 2.7.14.14.76-.35 1.38-1.09 1.19-1.41 1.63-1.4 1.63.03 0 1.06-2.44 3.6-3.45 3.6-.39 0-1.06-.28-1.48-.63zm38.19.11c-.71-.3-1.22-.83-1.36-1.4-.26-1 .3-3.63 1.1-5.17 1.04-2 .2-2.4-1.34-.64-.52.6-1.13.97-1.34.84-1.07-.66 1.32-4.16 3.08-4.5 1.2-.23 2.57 1.02 2.62 2.4.04 1.24-.49 3.77-1.14 5.36-.45 1.13-.3 1.77.32 1.38.85-.52 2.98-4.17 3.43-5.86.56-2.12 1.51-3.32 2.38-2.98.85.32.9 1.18.15 3.15-.96 2.55-1.32 5.12-.72 5.12.25 0 .72-.4 1.04-.88.8-1.22 1.22-1.1.84.22-.46 1.6-1.31 2.76-2.32 3.14-1.03.4-2.25-.1-2.25-.9 0-.7-.11-.67-1.63.36-1.5 1.02-1.38 1-2.86.36zm32.88.08c-.95-.52-1.22-.98-1.23-2.1 0-1.81 2.65-2.24 3.42-.55.73 1.6-.78 3.43-2.2 2.65zm35.03-.1c-1.24-.68-1.69-1.55-1.68-3.23 0-2.95 1.93-6.15 4.4-7.32 3.11-1.47 5.78 1.37 3.62 3.84a9.1 9.1 0 0 1-2.91 1.72c-1.92.74-2.12.9-2.12 1.84 0 1.58.9 1.45 2.72-.4 2.38-2.4 3.4-1.27 1.37 1.53a5.06 5.06 0 0 1-2.71 1.99l-1.7.56-1-.54zm4.02-7.75c.22-.49.3-.99.17-1.12-.3-.3-1.65.93-1.65 1.53 0 .81 1.06.52 1.48-.41zm146.36 7.36c-.91-1.17-.92-2.05-.02-2.95 1.43-1.43 3.88-.51 3.88 1.45 0 2.32-2.46 3.28-3.86 1.5zm17.6-.1c-1.29-1.28-1.32-2.23-.11-3.18 1.11-.87 1.82-.91 2.87-.18 1.03.72 1.07 2.7.08 3.69-.96.96-1.64.88-2.85-.33zm50.82.33c-1.06-1.06-.97-3.28.16-4.02 1.2-.79 2.05-.71 2.95.25.97 1.02.98 2.34.04 3.54-.88 1.12-2.17 1.21-3.15.23zm18.16.2c-1.4-.6-1.93-1.86-1.93-4.54 0-1.87.17-2.47 1.14-4.02 1.98-3.16 5.7-4.38 7.27-2.39.87 1.1.68 3.26-.35 4-.6.44-.62.56-.15 1.08 1.08 1.19-.49 4.1-3.04 5.65-1.36.84-1.52.85-2.94.23zm3.16-4.13c.51-.6.86-1.18.76-1.27-.09-.1-.73.02-1.42.25-.98.32-1.26.6-1.26 1.27 0 1.18.8 1.08 1.92-.25zm.19-4.7c-.01-.2-.25-.06-.53.32-.29.37-.52.85-.51 1.05 0 .2.24.07.53-.3.28-.38.51-.86.5-1.07zm-258.16 8.56c-.23-.24-.42-.87-.42-1.4 0-.74.27-1.12 1.1-1.55 1.04-.54 1.13-.53 1.94.23.46.43.84 1.06.84 1.38 0 1.38-2.46 2.33-3.46 1.34zm202.9-.5c-.86-.85-.9-1.06-.74-3.6.1-1.7.4-3.11.8-3.77 1.92-3.27 6.93-4.57 7.46-1.93.26 1.27.7 1.34 1.24.17.23-.5.9-1.03 1.59-1.26 1-.33 1.37-.28 2.32.27.68.4 1.2 1.01 1.27 1.51.12.85-.44 3.16-1.04 4.32a3.96 3.96 0 0 0-.32 1.52v.91l.98-.7c.96-.68 2.03-2.9 2.87-5.95.45-1.64 1.68-2.33 2.68-1.5.72.59.66 1.4-.26 4.05-.79 2.26-.68 3.34.21 2.12 1.12-1.53 2.2.55 1.24 2.4-1.28 2.48-3.22 3.07-4.74 1.43-.47-.52-.86-.76-.86-.54 0 .53-1.87 1.47-2.92 1.47-1.32 0-2.37-1.39-2.37-3.13 0-.82.21-1.92.48-2.44.26-.53.6-1.58.73-2.35.23-1.26.2-1.34-.33-.9-.32.26-.8.93-1.1 1.47-.58 1.15-1.1 1.26-1.75.38-.42-.58-.5-.57-1.27.14-.45.42-1.5.96-2.33 1.2-1.6.48-2.35 1.74-1.53 2.56.5.49 2.72-.6 3.25-1.59.38-.7 1.2-.84 1.56-.27.42.69-1.57 3.5-3 4.22-1.86.95-3.03.9-4.12-.2zm4.17-7.07c.36-.32.65-.83.65-1.12 0-.4-.22-.33-.88.29-1.33 1.25-1.1 2.04.23.83zm-293.87-5.8c-.94-.88-.76-1.88.54-3.07.95-.86 1.89-.8 3.03.2.85.75.77 1.72-.25 2.74-1.06 1.06-2.27 1.1-3.32.13zm51.63-.56c-.51-1.23-.5-1.33.23-2.11 1.31-1.4 3.46-.91 3.92.89.3 1.13-1.1 2.52-2.54 2.52-.9 0-1.16-.21-1.6-1.3zM2.9 66.83c-.98-.69-1.05-2.57-.14-3.7.59-.72.75-.75 1.94-.36.87.3 1.3.65 1.3 1.08 0 .36.1.9.2 1.2.24.6-1.29 2.33-2.05 2.33-.26 0-.82-.25-1.25-.55zm52.1.1a2.28 2.28 0 0 1-.64-2.8c.89-1.68 2.35-1.82 3.25-.3.79 1.33.47 2.78-.7 3.22-1.08.41-1.22.4-1.91-.12zm-34.61-.63c-1.78-.93-2.28-2.69-1.57-5.42.9-3.44 2.77-5.14 5.66-5.14 1.33 0 3.2 1.3 3.57 2.48.25.8.88.94.88.2 0-.64 2.66-3.03 3.38-3.03.3 0 1.03.48 1.62 1.07 1.2 1.19 1.2 1.27-.01 5.44-.78 2.7-.69 3.37.35 2.44 1.11-1.01 2-2.7 2.8-5.28.83-2.66 1.08-2.95 2.54-2.96 1.12 0 1.53.68 1 1.68-.2.37-.68 1.8-1.06 3.2-.75 2.7-.45 3.65.58 1.84.76-1.33 1.29-1.22 1.43.28.1.94-.14 1.4-1.3 2.56-1.55 1.55-2.47 1.62-3.63.28-.73-.84-.86-.84-1.96.03-.5.39-1.33.7-1.85.7-1.05 0-2.36-1.19-2.52-2.29-.1-.72.85-4.07 1.5-5.24.25-.47.24-.78-.04-1.06-.3-.3-.5-.22-.8.3-.22.4-.82 1.1-1.34 1.6a9.83 9.83 0 0 0-1.72 2.64c-.99 2.25-2.3 3.61-3.9 4.06-1.7.47-2.1.43-3.61-.38zm3.14-1.56c1.59-1.12 2.64-6.22 1.44-7-.47-.3-.8-.24-1.56.32-1.13.84-1.83 2.57-1.86 4.62-.05 2.55.48 3.1 1.98 2.06zm49.56 1.75c-1.06-.46-1.16-.62-1.06-1.83.09-1.06.32-1.43 1.1-1.8 2.13-1.02 3.67 1.6 2 3.4-.4.42-.75.76-.8.75-.04 0-.6-.24-1.24-.52zm37.12-.41c-1.07-1.16-.98-2.1.3-3.05 1.73-1.3 3.7.16 3.15 2.34-.13.54-1.72 1.66-2.36 1.66-.11 0-.6-.43-1.09-.95zm18.47.29a4.81 4.81 0 0 1-2.03-3.86c0-.59.32-1.92.72-2.96 1.23-3.21 4.59-4.94 7.24-3.73.95.43 2.27 2.84 2.27 4.14 0 1.27-1.12 3.74-2.2 4.85-1.67 1.73-4.49 2.46-6 1.56zm3.69-2.9a6.66 6.66 0 0 0 1.03-4.76c-.4-1.48-1.7-1.4-2.77.17-.63.94-.8 1.69-.8 3.46 0 2.24 0 2.26.93 2.15a2.8 2.8 0 0 0 1.6-1.02zm20.06 2.64c-1.71-1.43-1.28-3.34.88-3.88 2.26-.57 3.5 2.2 1.75 3.93-1.08 1.08-1.3 1.08-2.63-.05zm19.03.15a3.09 3.09 0 0 1-.72-1.9c0-.92.21-1.23 1.13-1.67 1-.48 1.25-.49 2.11-.04 1.17.6 1.58 1.87.97 3.02-.83 1.58-2.32 1.83-3.49.59zm18-.15c-1.7-1.43-1.27-3.34.9-3.88 2.25-.57 3.48 2.2 1.74 3.93-1.08 1.08-1.3 1.08-2.63-.05zm57.13.21c-1.16-1.16-.86-3.12.63-3.99 1.07-.62 1.21-.63 2.01-.1 1.47.96 1.73 1.83 1 3.31-.8 1.63-2.44 1.98-3.64.78zm38.45 0c-.88-.88-.88-1.63-.01-3.06.62-1.02.79-1.1 1.75-.83 1.62.47 1.8.66 1.8 1.97 0 1.37-1.02 2.63-2.12 2.63-.4 0-1.03-.32-1.42-.7zm18.82-.03a4.58 4.58 0 0 1-1.87-4.77c.6-2.7 1.33-3.9 3.03-5.03 2.2-1.45 3.93-1.49 5.47-.1 2.85 2.54.88 9-3.04 10.03-2.12.56-2.53.54-3.59-.13zm2.87-1.95c.85-.33 1.95-2.74 1.95-4.29 0-1.77-.77-2.87-1.65-2.35-1 .58-2.23 3.32-2.23 4.93 0 1.91.42 2.29 1.93 1.7zm36.58 1.87c-1.14-1.21-1-2.58.34-3.4 1.15-.69 1.82-.63 2.87.27 1.36 1.17.23 3.95-1.62 3.95-.45 0-1.16-.37-1.59-.82zm18.29.37c-1.43-.72-2.14-2.55-1.89-4.83a7.72 7.72 0 0 1 3.45-5.92c1.88-1.27 2.9-1.41 4.45-.61.88.45 1.04.75 1.04 1.88 0 1.02-.25 1.59-1.05 2.37-1.24 1.23-1.29 1.42-.36 1.66 1.72.45-.12 3.81-2.84 5.2-1.6.82-1.65.82-2.8.25zm3.25-3.68a6 6 0 0 0 1.33-1.63c0-.4-2.48.04-3.08.54-.7.57-.53 2.4.22 2.4.1 0 .79-.6 1.53-1.31zm.41-4.43c.2-.32.26-.69.13-.82-.34-.34-1.32.53-1.32 1.16 0 .64.7.44 1.2-.34zm-155.93 7.86a4.16 4.16 0 0 1-2.25-3.34c0-1.69 1.03-4.48 2.08-5.6 3.2-3.48 7.1-3.45 7.1.05 0 1.48-.92 2.4-3.35 3.38-2.26.9-2.9 1.53-2.55 2.46.39 1 1.58.63 2.77-.85 1.2-1.5 2.48-1.8 2.7-.62.15.79-2.62 3.78-4.06 4.39-1.29.54-1.4.54-2.44.13zm3.46-7.65c.72-.65.86-1.53.24-1.53-.48 0-1.34 1.06-1.35 1.68-.02.6.34.55 1.1-.15zm16.98 7.55a8.8 8.8 0 0 1-.73-1.39c-.34-.78-.3-1.07.2-1.66.98-1.16 2.29-1.27 3.42-.3 1.33 1.15 1.02 2.56-.71 3.29-1.48.62-1.76.63-2.18.06zm35.3.1a4.8 4.8 0 0 1-1.52-1.29c-.66-.84-.74-1.25-.53-2.76.38-2.87 1.16-4.37 3.02-5.84 2.02-1.6 3.43-2 4.8-1.34.77.37 1 .74 1.09 1.81.15 1.92-.62 2.86-3.13 3.82-2.22.85-2.96 1.6-2.59 2.57.37.96 1.45.6 2.73-.89 1.25-1.46 2.4-1.75 2.62-.65.18.94-1.99 3.52-3.56 4.23-1.64.75-1.86.77-2.93.34zm3.45-7.65c.72-.65.86-1.53.25-1.53-.48 0-1.34 1.06-1.35 1.68-.02.6.33.55 1.1-.15zm56.74 7.46a3.73 3.73 0 0 1-.49-1.84c-.03-1.1.12-1.38.96-1.79.8-.39 1.2-.4 2.02-.06 1.9.78 1.77 2.9-.22 3.73-1.5.62-1.73.62-2.27-.04zm-235.53-.72c-.83-.83-.9-1.1-.77-3.27.23-3.8 2.34-6.26 6-6.94 1.13-.21 1.34-.13 2.03.85 1.34 1.87.4 3.42-3.01 4.99-2.05.94-2.7 1.68-2.35 2.71.29.85 1.51.44 2.91-.97 2.13-2.12 3.2-1.72 1.94.72-1.35 2.61-5.01 3.65-6.75 1.9zm4.13-6.17c.7-.36.97-1.75.35-1.75-.35 0-1.43 1.39-1.43 1.85 0 .36.27.34 1.08-.1zM2.96 39.52c-3.04-1.23-3-5.85.06-9.5 1.47-1.74 2.71-2.25 4.4-1.8.93.26 1.61.27 2.05.03.78-.42 2.17.4 2.17 1.28 0 .73-1.33 5.4-1.77 6.17-.2.38-.2.68 0 .81.19.11.58-.37.87-1.07.38-.9.72-1.24 1.16-1.15.95.2.63 2.32-.57 3.81-1.12 1.4-2.59 1.77-3.53.91-.56-.5-.74-.48-1.99.15-1.5.77-1.75.8-2.85.36zm3.16-2.78c1.21-1.33 2-6.4 1-6.4-.7 0-2.15 2.11-2.65 3.85-.78 2.74.17 4.2 1.65 2.55zm20.2 2.59c-1.58-1.59-1.52-3.02.16-3.89.92-.47 1.15-.47 2.05 0 1.31.67 1.6 1.82.8 3.18-.71 1.24-2.14 1.58-3 .7zm17.34-.2c-1.49-.88-.14-3.5 1.8-3.5 1.35 0 1.88.72 1.75 2.36-.11 1.3-.16 1.35-1.53 1.43a4.5 4.5 0 0 1-2.02-.28zm17.6.12c-.08-.15-.26-.8-.4-1.44-.32-1.51.53-2.53 2.11-2.53 1.72 0 2.88 1.74 2.02 3.03-.63.96-3.31 1.63-3.72.94zm18.57-.63c-1.53-1.22-1.76-2.66-.84-5.28.8-2.3 2.43-4.24 4.16-4.98 2.14-.92 4.34.23 4.34 2.27 0 1-1.8 2.8-3.13 3.11-2.3.55-3.44 1.61-3 2.77.36.93 1.35.58 2.95-1.06a9.25 9.25 0 0 1 1.82-1.58c.14 0 .36.32.48.73.32.98-1.42 3.47-2.84 4.06-2.18.91-2.75.9-3.94-.04zm4.4-7.36c.54-1.18.12-1.43-.86-.51-.99.93-1.04 1.35-.17 1.35.36 0 .82-.38 1.03-.84zm15.48 7.51c-.61-.87-.22-2.7.72-3.4 2.03-1.5 4.45 1.25 2.87 3.25-.9 1.15-2.83 1.23-3.59.15zm39.16 0c-.61-.87-.23-2.7.72-3.4 2.02-1.5 4.45 1.25 2.87 3.25-.9 1.15-2.83 1.23-3.59.15zm66.17.2c-1-.71-1.06-2.62-.1-3.5.74-.66 2.5-.51 3.15.27 1.83 2.21-.69 4.88-3.05 3.22zm37.19-.25c-1.01-1.6-1.01-2.27-.01-3.05 1.79-1.41 3.67-.56 3.67 1.65 0 1.16-.44 1.55-2.2 1.97-.76.18-1.06.06-1.46-.57zm47.28.15c-1.18-1.3-.4-3.95 1.17-3.95 1.27 0 2 .66 2.25 2.04.38 2.08-2.04 3.43-3.42 1.9zm18.24.29a4.53 4.53 0 0 1-1.52-1.38c-.64-.9-.73-1.36-.53-2.76.47-3.36 2.03-5.55 5.05-7.13.9-.47 2.66-.28 3.45.38.64.53.6 2.79-.06 3.74-.3.42-1.5 1.12-2.66 1.54-2.17.79-2.97 1.59-2.58 2.58.36.96 1.44.61 2.72-.88 1.28-1.5 2.41-1.75 2.64-.6.14.73-2.86 4.04-3.94 4.35-1.53.43-1.83.45-2.57.16zm4.1-8.7c0-.72-.83-.57-1.33.25-.63 1-.17 1.59.67.83.36-.33.67-.82.67-1.08zm15.96 8.5c-1.06-.74-1-2.1.14-3.17 1.08-1 2.39-.89 3.4.28.74.84.54 1.91-.51 2.82-.89.77-2 .8-3.03.07zm17.73-.3c-1.5-2.27 1.96-5.17 3.51-2.95 1.2 1.71.24 3.8-1.75 3.8-.89 0-1.36-.23-1.76-.84zm18.25.22c-1.4-.68-1.63-1.48-1.4-4.65.13-1.92.36-2.65 1.16-3.7 1.06-1.4 3.85-3.01 5.19-3.01 2.65 0 3.4 3.42 1.16 5.28-.51.42-.5.54.2 1.27l.75.81-.79 1.28a7.86 7.86 0 0 1-4.23 3.09c-.5.11-1.39-.05-2.04-.37zm3.78-3.22c1.06-1.48.95-1.9-.42-1.6-1.51.32-2.03.77-2.03 1.79 0 1.25 1.5 1.14 2.45-.19zm15.7 2.92c-1.3-1.4-1.13-2.78.44-3.6 1.1-.58 1.78-.5 2.58.3.9.9.9 2.13-.02 3.3-.93 1.18-1.9 1.18-3 0zm-264.81.03a3.13 3.13 0 0 1-1.37-1.9c-.74-2.46 1.08-6.39 3.8-8.18 1.34-.88 3.44-.86 4.35.04 1.62 1.63.4 3.76-2.87 5-2.29.88-3.2 2.01-2.39 2.99.6.72.8.63 2.47-1.1 1.6-1.65 2.32-1.95 2.65-1.1.46 1.2-1.66 3.71-3.7 4.4-1.52.5-1.77.49-2.94-.15zm4.02-7.4c.22-.48.28-1 .14-1.14-.34-.33-1.68 1.3-1.42 1.72.35.56.87.33 1.28-.57zM222 38.48c-.9-.54-1.17-1-1.35-2.2-.41-2.74 1.6-6.58 4.13-7.9 1.45-.76 3.3-.64 4.15.27 1.58 1.7.43 3.68-2.86 4.93-2.35.9-3.23 1.96-2.43 2.93.65.78.79.72 2.58-1.1 1.58-1.6 2.72-1.9 2.72-.69 0 1.04-2.27 3.47-3.7 3.96-1.82.62-1.91.61-3.24-.2zm4.32-7.48c.12-.39.12-.8 0-.92-.34-.34-1.73 1.2-1.47 1.63.33.53 1.2.1 1.47-.71zm33.66 7.16c-1.33-1.33-1.56-2.38-1.05-4.8.66-3.18 3.1-5.48 5.8-5.48.99 0 1.55.3 2.64 1.39l1.39 1.38.88-1.16a5.88 5.88 0 0 1 1.99-1.61c.98-.4 1.21-.38 2.05.25 1.23.91 1.38 2.55.46 5.26-.77 2.29-.67 2.84.31 1.63.84-1.04 2.12-1.06 2.12-.04 0 .84-1.23 3.07-2.06 3.75-.8.65-2.68.54-3.35-.2-.96-1.06-1.04-2.55-.26-5 .4-1.27.72-2.5.72-2.74.01-.78-.64-.47-1.12.53a3.07 3.07 0 0 1-1.25 1.32c-.44.19-.8.62-.8.95 0 1.72-1.8 4.38-3.42 5.06-2.06.86-3.88.68-5.05-.5zm4.71-2.46c.92-1.57 1.02-4.92.16-5.47-1.3-.83-3.1 2.27-3.1 5.33 0 1.27.27 1.55 1.38 1.42.56-.07 1.13-.53 1.56-1.28zm9.4-10.19c-1.71-.63-2.28-2.34-1.11-3.4 1.34-1.21 3.59-.25 3.59 1.54 0 .65-.28 1.21-.79 1.56-.84.6-.88.6-1.68.3zM3.26 11.8c-.43-.3-1.02-1.01-1.31-1.57-.46-.9-.47-1.29-.03-3.18.63-2.68 1.2-3.56 3.3-5.12C6.61.9 7.13.72 8.46.8c1.27.08 1.67.26 2.08 1 1.05 1.89-.37 4.01-3.27 4.87C5.58 7.16 4.5 8.19 4.82 9c.4 1.06 1.28.84 2.82-.72C8.96 6.95 9.32 6.76 9.9 7.07c.95.5.88.72-.77 2.6-2.28 2.58-4.22 3.29-5.88 2.13zM7.6 4.22c.51-.56.56-.8.21-1.14-.34-.34-.57-.25-1.1.45-.38.48-.7 1-.7 1.14-.01.53.96.25 1.6-.45zm16.06 7.01c-.61-1.01-.63-1.21-.16-2.12.4-.79.76-1 1.67-1 1.46 0 2 .54 2 2 0 .78-.24 1.31-.78 1.69-1.19.83-1.98.66-2.73-.57zm17.75.5c-1.67-1.36-1.9-3-.87-6.02C41.64 2.5 44.56.24 46.6 1a5.5 5.5 0 0 0 2.12.15c1.54-.19 1.82.3 1.32 2.25-.2.75-.48 2-.63 2.77a13.8 13.8 0 0 1-.53 2c-.13.32-.1.67.1.79.19.12.51-.28.72-.87.4-1.17 1.53-1.35 1.73-.27.17.87-1.04 3.14-2.07 3.9-.86.64-1 .65-2.24.13-1.18-.5-1.41-.5-2.08-.03-1 .7-2.7.65-3.64-.1zm3.52-2.5a6.69 6.69 0 0 0 1.65-4.7c0-1.43-.33-1.83-1.22-1.49-1.62.62-3.15 7.2-1.68 7.2.16 0 .72-.46 1.25-1zm20 2.41c-.4-.39-.71-.86-.71-1.04 0-.66.82-2.13 1.2-2.14.21 0 .73-.1 1.14-.2.97-.27 2.24.94 2.24 2.13 0 1.74-2.57 2.57-3.88 1.25zm18.47.08c-1.68-1.35-1.92-3-.87-6.01C83.62 2.5 86.54.24 88.58 1a5.5 5.5 0 0 0 2.12.15c1.54-.19 1.82.3 1.32 2.25-.2.75-.48 2-.63 2.77a13.8 13.8 0 0 1-.53 2c-.13.32-.09.67.1.79s.51-.28.72-.87c.4-1.17 1.53-1.35 1.73-.27.17.87-1.04 3.14-2.07 3.9-.86.64-1 .65-2.24.13-1.18-.5-1.41-.5-2.08-.03-1 .7-2.7.65-3.63-.1zm3.48-2.46a5.93 5.93 0 0 0 1.68-4.5c0-1.65-.3-2.07-1.22-1.72-1.62.62-3.15 7.2-1.68 7.2.16 0 .71-.45 1.22-.98zm19.75 2.54c-.54-.38-.79-.91-.79-1.7 0-1.44.55-1.99 2-1.99 2.01 0 3.03 2.58 1.45 3.69-.99.7-1.67.7-2.66 0zm17.65.02c-1.34-.58-1.54-1.74-.51-3 1.18-1.46 3.6-.73 3.6 1.08 0 .61-1.3 2.46-1.7 2.43-.14 0-.76-.23-1.4-.5zm37.65-.53c-.92-1.3-.82-2 .42-2.93.84-.62 1.08-.65 2.03-.26.88.37 1.08.65 1.08 1.56 0 1.3-.26 1.73-1.3 2.28-1.13.6-1.4.52-2.23-.65zm17.65.1c-.94-1.2-.8-2.12.45-3.06.91-.67 1.06-.69 1.94-.2a2.11 2.11 0 0 1-.11 3.8c-1.27.58-1.43.54-2.28-.53zm39.25.57a2.2 2.2 0 0 1-1.3-2.61c.33-1.33 1.32-1.73 2.6-1.06 2.45 1.26 1.26 4.62-1.3 3.67zm17.02-.3c-1.24-.83-1.54-1.47-1.57-3.4a8.12 8.12 0 0 1 2.62-6.1l1.54-1.43 2.76.12c1.52.07 2.87.14 3.02.17.42.06.3 1.84-.22 3.39-.67 1.98-1 4.4-.6 4.4.18 0 .38-.35.44-.78.08-.53.4-.84.96-.92.8-.11.83-.04.65 1.35-.34 2.55-2.06 3.87-4.13 3.18-1.1-.36-1.48-.34-2.4.14-1.41.73-1.8.71-3.07-.13zm4.26-3.97c.27-.52.5-1.83.5-2.91 0-1.71-.1-1.96-.7-1.96-.91 0-1.66 1.19-2.3 3.65-.38 1.44-.42 2.24-.16 2.92l.35.94.9-.84a8.13 8.13 0 0 0 1.4-1.8zm18.93 4.13c-.9-.4-1.15-.7-1.14-1.48 0-1.18.27-1.64 1.26-2.16 1-.52 2.08-.18 2.61.82.38.7.34 1-.22 1.97-.82 1.4-1.06 1.48-2.51.85zm16.87-.4c-.88-1.12-.9-1.5-.18-2.52.72-1.03 2.78-1.1 3.31-.1.56 1.04.44 2.06-.34 2.84-.96.96-1.92.89-2.8-.22zm18.8.33a3.65 3.65 0 0 1-1.5-1.4c-1.06-2.32.07-6.22 2.38-8.27 1.53-1.35 1.56-1.36 4.23-1.27 1.48.05 2.9.21 3.14.36.47.3.36 1.16-.45 3.6-.68 2-.97 4.05-.58 4.05.19 0 .43-.4.56-.88.21-.88 1.35-1.24 1.77-.57.32.52-.55 2.62-1.5 3.65-1 1.07-1.67 1.2-3.07.56-.75-.35-1.1-.32-1.92.17-1.21.72-1.62.72-3.07 0zm4.14-4.52c.71-1.53.88-3.88.31-4.23-.7-.44-1.67.22-2.22 1.5-.98 2.28-1.29 3.95-.92 4.93l.34.9.92-.84a8.48 8.48 0 0 0 1.57-2.26zm38.12 4.3c-1-1.06-.99-2.51.02-3.22 2.4-1.68 4.94.85 3.25 3.25-.72 1.04-2.27 1.03-3.27-.03zm-194.87-.09c-1.79-.97-2.19-3.1-1.1-5.88 1.24-3.14 3.44-4.96 5.8-4.79 3 .22 3.51 3.05.84 4.79-.67.43-1.42.8-1.66.8-1.03 0-2.74 1.4-2.74 2.24 0 1.58 1.02 1.4 2.87-.5 1.75-1.8 2.42-1.97 2.42-.6 0 1.4-1.7 3.35-3.45 3.94-1.92.66-1.78.66-2.98 0zm4.31-8.3c0-.6-1.03-.31-1.41.4-.6 1.1 0 1.66.76.71.36-.44.65-.94.65-1.11zm171.67 7.98a3.56 3.56 0 0 1-.57-1.56c0-1.4 2.79-2.4 3.81-1.38.47.47.56 2 .15 2.62a3.92 3.92 0 0 1-2.3 1.2c-.29 0-.78-.4-1.09-.88zm-120.75-.39c-.84-.84-.9-1.09-.74-3.26.28-3.8 2.43-6.28 5.97-6.9 1.15-.21 1.37-.12 2.03.8 1.36 1.91.63 3.27-2.67 4.97-1.83.94-2.44 1.45-2.53 2.09-.07.46.07.96.3 1.1.6.37 2.8-.99 3.26-2 .47-1.04 1.67-1.12 1.67-.1 0 1.13-.62 2.03-2.19 3.16-1.9 1.38-3.8 1.43-5.1.14zm4.4-6.21c.5-.5.56-1.7.09-1.7-.36 0-1.43 1.39-1.43 1.84 0 .43.86.33 1.34-.14z"/>
</svg>
