<?xml version="1.0" encoding="utf-8"?>
<svg xmlns="http://www.w3.org/2000/svg" viewBox="0 0 298 109">
	<title>A diagram consisting of three lines of text, followed by one line of characters and symbols, followed by one more line of text. The lines of text just have vowels showing; the remaining letters are simply full stops. The line of characters and symbols reads: D, DF under a line, a rectangle, 19 F + 44, a right triangle lying on the hypotenuse with a dot at the left corner, 357, and the same triangle flipped horizontally.</title>
	<path d="M13.1 108c-.57-.47-.81-.91-.81-1.46 0-.97.47-3.1.83-3.77.19-.33.18-.58 0-.76-.2-.2-.43-.02-.75.55-.54.95-1.4 1.14-1.4.3 0-1.16.7-2.25 1.78-2.73.99-.45 1.11-.45 1.9-.05 1.31.68 1.44 1.42.66 3.75-.73 2.2-.65 2.75.25 1.62.73-.9 1.5-.96 1.5-.1 0 .82-1.26 2.4-2.31 2.91-.82.4-.89.39-1.66-.26zm80.49.3c-.96-.42-1.92-1.8-1.92-2.76 0-.96.54-2.39 1.4-3.69a4.78 4.78 0 0 1 2.2-1.8c1.62-.75 2.17-.67 3.13.47.61.73.64.86.3 1.51-.53 1.03-1.34 1.68-2.89 2.33-1.18.5-1.38.69-1.45 1.4-.12 1.18.5 1.06 2.09-.42 1.2-1.12 1.36-1.2 1.73-.83.37.37.37.5.01 1.17a6.85 6.85 0 0 1-2.74 2.59c-1 .5-.8.5-1.86.03zm2.84-6.51c0-.28-.12-.5-.26-.5-.32 0-.84.93-.63 1.13.28.3.89-.14.89-.63zm92.07 6.37c-.29-.29-.53-.83-.53-1.2 0-.71 1.06-1.97 1.66-1.97.44 0 1.5.96 1.55 1.4.18 1.94-1.43 3.02-2.68 1.77zm13.38-.14c-.37-.56-.4-.84-.15-1.57.31-.95.69-1.2 1.82-1.2 1 0 1.36.46 1.36 1.72 0 1.34-.36 1.72-1.61 1.72-.76 0-1.08-.15-1.42-.67zm21.65.05c-.67-.57-.76-.82-.7-1.93.03-.7.28-1.94.55-2.74.6-1.72.28-2.06-.74-.8-.55.68-.83.83-1.28.68-.4-.12-.8 0-1.27.36-.38.3-1.12.62-1.65.71-1.16.2-1.6.68-1.43 1.57.2 1 1.13.84 2.38-.43 1.68-1.7 2.37-.7.82 1.2-1.54 1.85-3.6 2.26-4.84.96-1.04-1.09-1.04-2.77 0-4.88.88-1.78 2.14-2.77 3.78-3 .9-.12 1.17-.03 1.77.58l.72.7.7-.67a2.57 2.57 0 0 1 3.1-.3c.88.61.95 1.75.26 4.12-.6 2.12-.61 2.14-.08 2.06.63-.1 1.34-1.26 1.79-2.9.17-.63.4-1.39.53-1.68.12-.29.3-.8.38-1.12.13-.47.36-.6 1.07-.6 1.21 0 1.38.74.67 2.92-.3.92-.55 1.83-.55 2.02 0 .41.43.47.66.09.25-.4 1.2-.32 1.36.12.2.52-.92 2.48-1.78 3.12-.64.47-.75.48-1.65.1-.53-.22-.97-.53-.97-.68 0-.45-.54-.32-1.02.24-.73.86-1.7.93-2.58.18zm-4.42-5.72c.36-.73.13-1.17-.5-.93-.35.14-1 1.2-1 1.62 0 .42 1.22-.14 1.5-.7zm22.42 5.7c-.52-.8-.3-2.15.42-2.53 1.35-.73 2.64-.02 2.64 1.45 0 1.14-.59 1.72-1.73 1.72-.66 0-1.01-.17-1.33-.65zm14.2.16c-2.3-1.22-1.78-5.45.9-7.54 1.41-1.11 2.42-1.33 3.56-.77 1.34.65 1.63 1.65.88 3.02-.45.82-.52 1.15-.29 1.52.66 1.05-.72 3.07-2.62 3.86-1.19.5-1.35.5-2.44-.1zm3.07-2.56c.24-.5.35-1 .24-1.11-.34-.35-2.14.8-2.23 1.44-.07.5.04.6.73.6.68 0 .9-.17 1.26-.93zM3.63 107.91c-1.01-.62-1.25-1.38-1.06-3.43.14-1.55 1.04-3.72 1.55-3.72.15 0 .58-.24.95-.53.72-.57 2.17-.71 2.63-.26.18.2.5.19 1 0 .42-.16.98-.21 1.26-.12.44.14.49.31.33 1.26a4.5 4.5 0 0 1-.39 1.36c-.19.24-.43 1.23-.62 2.58-.03.25-.15.54-.25.64-.27.27-.22.62.08.62.14 0 .44-.42.65-.92.4-.95 1.1-1.23 1.37-.54.2.53-.93 2.49-1.82 3.15-.72.53-.76.53-1.62.06-.83-.44-.95-.44-1.7-.05-1.05.54-1.33.53-2.36-.1zm3.03-2.49c.78-1.6 1.03-3.41.53-3.82-1.01-.84-2.3 1.14-2.3 3.51 0 1.35.04 1.47.6 1.47.46 0 .75-.3 1.17-1.16zm21.37 2.7c-.71-.41-.92-.76-.92-1.56 0-.9.45-1.3 1.49-1.3.59 0 .99.18 1.27.58.57.81.52 1.34-.2 2.01-.7.65-.9.69-1.64.26zm23.1-.5c-.75-.75-.8-.9-.65-2.14.08-.74.27-1.48.4-1.64a4 4 0 0 0 .43-1.36c.17-1.05.17-1.06-.3-.5-.27.31-.63.79-.8 1.06-.28.46-.33.46-.74.06-.42-.4-.41-.5.13-1.58.95-1.9 1.89-2.42 3.27-1.79 1.06.49 1.4 1.63.89 3.1-.76 2.2-.8 2.42-.37 2.42.2 0 .45-.18.54-.41.26-.69 1.34-.36 1.43.43.06.5-.23 1-1.07 1.92-1.37 1.47-2.03 1.56-3.16.43zm14.72.16c-.6-.93-.4-2.03.48-2.52.65-.36.8-.36 1.46 0 1 .56 1.16 2.13.28 2.75-.87.6-1.73.52-2.22-.23zm13.64.12c-.69-.69-.66-1.13.1-2.02.56-.65.71-.7 1.52-.47.8.23.9.37.98 1.3.06.75-.04 1.13-.38 1.38a1.7 1.7 0 0 1-2.22-.2zm-37.9-.07c-.81-.61-1.02-1.69-.58-2.91.78-2.14 1.12-3.34.98-3.48-.27-.27-1.13.4-1.13.88 0 .59-.66 1.2-1.04.96-.76-.47.4-2.88 1.7-3.5.75-.36 1.02-.37 1.69-.1 1.41.59 1.6 2.21.52 4.74-.58 1.37-.61 1.9-.11 1.9.56 0 1.48-1.73 2.26-4.24l.7-2.25.98-.08c.96-.08.98-.07.98.85 0 .52-.26 1.7-.57 2.65-.6 1.87-.5 3.1.18 2.16.2-.27.4-.62.46-.77.15-.47.99.03.99.6 0 .54-1.12 2.37-1.67 2.72-.65.4-2.01.22-2.3-.33l-.29-.53-1.04.53c-1.19.61-2.09.68-2.71.2zM14.3 97.63c-1-1.11-.13-2.96 1.4-2.96.43 0 .96.19 1.19.42.47.47.55 1.75.14 2.5-.37.7-2.11.71-2.73.04zm38.1-.27c-.85-.94-.28-2.47 1.05-2.8 1.46-.37 2.68 2.02 1.5 2.92-.68.5-2.03.45-2.55-.12zm168.63-9.85c-.24-.45-.18-.7.34-1.39.35-.46 1.2-1.9 1.88-3.18.68-1.3 1.6-2.86 2.02-3.5.8-1.16 1-2.07.53-2.36-.43-.27-.3-1.34.2-1.78.25-.22.89-.54 1.4-.71 1.03-.33 2.07-1.5 2.17-2.47.06-.54-.06-.6-1.15-.68-.85-.06-1.32.04-1.55.33-.46.55-1.42.52-1.96-.07-.72-.8-.55-2.02.38-2.8.75-.64 1.01-.69 3.37-.7 1.41 0 3.02-.1 3.59-.24 1.22-.28 2.13 0 2.55.8.42.77.16 1.58-.86 2.68-2.39 2.59-2.85 3.23-2.85 3.96 0 .57-.38 1.14-1.46 2.24a7.6 7.6 0 0 0-1.62 2.18c-.1.38-.26.81-.36.96-.1.14-.4.89-.65 1.65a5 5 0 0 1-.69 1.53c-.13.09-.71.97-1.3 1.96-1.12 1.93-1.4 2.14-2.8 2.14-.63 0-.98-.16-1.18-.55zm-103.4-2c-.2-.09-.58-.52-.85-.97l-.49-.8.95-.75a4.71 4.71 0 0 1 1.14-.76c.67 0 3.7-3.34 3.7-4.08 0-.08-.68-.07-1.52.02-1.45.14-1.58.1-2.69-.77-1.65-1.32-2.07-2.64-1.46-4.59.65-2.04 1.99-3.01 4.18-3.01 1.5 0 1.62.05 2.6 1.07 1.65 1.75 2.07 2.82 2.06 5.33-.02 2.3-.02 2.29-1.89 5.68-.39.7-1.22 1.79-1.86 2.4-.92.9-1.4 1.15-2.34 1.25-.65.07-1.34.06-1.53-.02zm4.08-10.6c.56-.73.33-1.46-.63-2.02-.8-.46-.9-.47-1.51-.07-1.54 1-.88 3 .88 2.7a2.29 2.29 0 0 0 1.26-.62zm134.25 8.24c-.55-.2-2.12-.35-3.86-.37a35.96 35.96 0 0 1-4.36-.26c-3.67-.63-6.79-.9-10.57-.92-2.25-.02-4.24-.12-4.43-.24-.49-.32-.4-1.89.14-2.35.25-.22 1.12-.77 1.94-1.23 1.12-.63 1.6-1.09 1.96-1.9.51-1.13 1-1.26 1.14-.3.1.67.37.7 1.33.2.39-.21 1.42-.58 2.3-.83.86-.25 1.88-.64 2.24-.88.76-.5 1.7-.86 4.6-1.8a19.9 19.9 0 0 0 3.04-1.24c1.28-.76 3.75-1.76 4.35-1.76 1.4 0 3.3 2.24 4.16 4.9.18.58.97 1.98 1.75 3.12a15.2 15.2 0 0 1 1.57 2.71c.26 1.03-.12 2.47-.76 2.87-.85.53-5.37.73-6.54.28zm2.82-3.72c.19-.47-1.75-5-2.61-6.1-.6-.79-1.75-.67-4.24.42-2.24.98-4.36 1.7-7.21 2.46-.59.15-1.25.44-1.49.64-.23.2-1.05.57-1.83.83-1.87.6-2.03 1.11-.34 1.13 1.65.02 9.55.48 12.78.75 4.24.35 4.77.34 4.94-.13zm-6-1.7c-.85-.85-.66-1.75.49-2.35 1.32-.7 2.57 1.17 1.43 2.14-.81.7-1.37.76-1.92.21zm-47.76 5.2c-.29-.2-.95-.43-1.47-.53-1.7-.31-3.24-2.88-2.3-3.82.42-.42 1.4-.4 1.76.04.16.2.77.5 1.35.67.89.27 1.2.25 1.92-.12 1.56-.79 2.06-1.42 2.06-2.64 0-1.86-.5-2-3.47-1.01-.57.2-1.34-.63-1.25-1.32.05-.3.39-.7.75-.88.37-.17.95-.62 1.3-.99.58-.61.59-.68.16-.85-.26-.1-.67-.04-.9.13-.83.6-1.1.62-1.78.18-.6-.4-.66-.57-.51-1.42.1-.53.44-1.18.75-1.43.8-.64 2.85-1.23 3.48-1 1 .37 1.92 2.2 2.08 4.1.03.3.42 1.07.87 1.73 1.12 1.63 1.34 3.18.64 4.6-.59 1.2-4.05 4.92-4.58 4.92a2 2 0 0 1-.86-.36zm8.19-.8c-1.66-.73-2.47-2.55-1.5-3.39.86-.74 1.06-.73 2.05.06.98.78 2.04 1 2.73.56.9-.57 1.6-3.07 1.12-3.98-.23-.44-.55-.55-1.5-.55-.94 0-1.32-.15-1.84-.7-.43-.48-.6-.89-.49-1.23a15.5 15.5 0 0 1 2.2-4.16c.77-.9.84-.93 3.02-1.02 1.34-.05 2.46.03 2.8.21.67.36.74 1.49.15 2.34-.35.5-.66.59-2 .59-2.7 0-3.35.76-1.63 1.87a5.45 5.45 0 0 1 2.19 3.85c0 2.13-2.23 4.94-4.45 5.6-1.3.4-1.83.39-2.85-.06zm-157.08-.26c-.67-.51-.6-1.89.13-2.4.32-.23.79-.41 1.03-.41.67 0 .7-.4.39-3.64-.27-2.72-.36-3.04-1.02-3.65-.9-.83-.91-1.28-.06-2.13.82-.82.82-.9-.02-.9-.73 0-1.97-1.06-1.97-1.69 0-.54.7-1.19 1.5-1.39.38-.1 2.2-.03 4.05.14 2.49.23 4.04.23 5.97.02 1.43-.16 3.27-.23 4.08-.15.8.09 2.54.06 3.85-.06 2.53-.23 4.52.15 4.81.92.2.52-.62 1.66-1.42 1.96-.38.15-2.84.34-5.48.44-5.65.2-5.11.21-9.91-.06-3.66-.2-3.8-.2-3.7.3.09.39.3.48 1.02.44.84-.05 3.4.79 5.02 1.65a5 5 0 0 1 1.8 2.36c.14.3.1 1.2-.08 2.2-.4 2.16-1.5 3.32-4.46 4.78-3.41 1.68-4.62 1.95-5.53 1.27zm6.4-5.04c1.03-1.04 1.13-1.27.98-2.04-.22-1.1-1.14-2.08-1.94-2.08-.76 0-.79.08-1 2.98-.15 2.13-.13 2.31.32 2.31.27 0 1-.53 1.64-1.17zm22.65 5.16c-.08-.14-.78-.18-1.55-.1-1.19.12-1.56.04-2.38-.48l-.97-.63-.04-2.78c-.1-6.17.09-6.92 1.83-7.4a28 28 0 0 1 4.6-.23c1.97.02 3.7-.03 3.82-.1.37-.23 10.87-.53 11.73-.34 1.23.27 1.42 1.14 1.3 5.99-.1 4.09-.14 4.28-.73 4.76a1.6 1.6 0 0 1-1.45.35c-.45-.08-3.28.04-6.27.26-3 .23-5.81.35-6.24.26-.46-.1-1.2.02-1.8.26-1.14.48-1.63.53-1.85.18zm12.11-4.11c1.43-.18 2.71-.45 2.85-.6.15-.13.29-1.2.32-2.34l.06-2.1-2.78.08c-1.53.05-3.37.2-4.1.33-.73.14-3.2.29-5.5.33-3.41.07-4.24.16-4.6.51-.58.58-.31 1.12.96 1.92.59.37 1.07.78 1.07.9a3 3 0 0 0 .57.95l.57.73 4-.2c2.19-.1 5.15-.33 6.58-.51zm14.14 4.07c-1.18-.7-1.62-3.12-.83-4.61.24-.45.42-1.41.42-2.23 0-1.28-.1-1.5-.82-2.07-1.17-.9-1.1-1.76.2-2.42.55-.29 1.16-.7 1.35-.93.42-.51 1.6-.55 2.25-.06.42.3.46.59.31 2.18-.1 1-.28 2.54-.42 3.41-.14.88-.34 2.64-.44 3.92-.15 1.93-.27 2.4-.73 2.71-.64.45-.68.45-1.29.1zm55.91-.23c-.3-.3-.54-.89-.54-1.34 0-.43-.1-.8-.2-.82a77 77 0 0 0-2-.1c-3.1-.15-3.98-.85-2.87-2.28.6-.76 2.14-3.98 2.98-6.19.33-.87.77-1.86.97-2.18.75-1.17 2.44-.5 2.44.97 0 .84-1.4 3.69-2.43 4.91-.79.95-.72 1.99.12 1.99.89 0 1.78-.73 1.78-1.46 0-.67.87-1.45 1.62-1.45.26 0 .6.38.81.93.24.6.7 1.1 1.29 1.39.95.48 1.2 1 .93 2.06-.1.42-.43.7-.97.84-.67.17-.91.47-1.39 1.66-.47 1.2-.7 1.47-1.28 1.53-.45.06-.91-.11-1.26-.46zm-10.31-.45c-.3-.38-.55-.92-.55-1.2 0-.45-.15-.48-1.69-.32-1.5.15-1.75.1-2.25-.4-.85-.85-.7-1.86.76-4.81a23.07 23.07 0 0 0 1.32-3c0-.17.31-.93.69-1.69.62-1.24.77-1.37 1.56-1.37 1.37 0 1.65.56 1.07 2.16-.27.74-.94 2.18-1.5 3.2-1.2 2.18-1.26 2.57-.36 2.57.48 0 .84-.28 1.32-1.05.97-1.53 1.5-1.4 2.5.57.95 1.91.95 1.91.32 2.52a3.2 3.2 0 0 0-.68 1.48c-.2 1.06-.95 2.04-1.59 2.04-.2 0-.62-.31-.92-.7zm-26.21-.22c-.48-.51-.6-.93-.58-1.92.17-5.93.15-6.1-.58-7.06-.87-1.14-.87-1.5-.02-2.35.84-.84 2.55-1.1 6.17-.92 4 .19 5.12 1.1 3.53 2.86-.72.81-.8.84-1.67.53a5.78 5.78 0 0 0-2.62-.1c-1.45.19-1.72.3-1.72.73 0 .4.3.6 1.27.84 2.04.52 2.73 1.46 2.02 2.77-.33.62-.95.65-2.03.11-1.16-.58-1.71-.28-1.51.8.3 1.65.25 3.48-.12 3.93-.52.63-1.43.54-2.14-.22zm43.03-.15c-.39-.3-.7-.79-.7-1.08 0-.28.71-1.92 1.58-3.63a22.2 22.2 0 0 0 1.6-3.57c0-.68.9-2.3 1.83-3.31.96-1.03 1.45-1 3.24.19 1.2.78 1.4.89 6.3 3.32 4.72 2.33 9.21 4.78 9.93 5.4.77.67.83 1.36.19 2.12-.45.53-.76.56-7.6.66-4.27.06-7.46 0-7.9-.16a6.3 6.3 0 0 0-2.65.03c-4.11.63-5.05.63-5.82.03zm17.02-3.3c0-.33-2.3-1.45-2.99-1.45-.21 0-.53-.18-.71-.4a3.5 3.5 0 0 0-1.42-.68 5.22 5.22 0 0 1-1.45-.59c-.62-.5-1.3-.87-3.38-1.83-1.02-.47-1.77-.15-2.18.93-.45 1.18-.27 1.46.61.99.56-.3.75-.28 1.32.1.8.51.83.75.22 1.77-.66 1.13-1.97.9-2.3-.42-.23-.92-.64-.83-1.1.25-.74 1.8-1.1 1.71 6.5 1.68 5.3-.02 6.88-.1 6.88-.35zM68.53 80.5c-.32-.33-.41-1.03-.41-3.2 0-1.52.11-3 .26-3.26.2-.37.1-.77-.4-1.64a5.15 5.15 0 0 1-.65-1.6c0-.75.96-1.07 2.6-.87.82.1 2.39.21 3.48.24 2.89.07 3.64.7 2.86 2.42-.31.67-.38.69-2.3.6-1.3-.05-2 .02-2.07.22-.06.16.2.37.58.47.87.21 1.26 1.2.9 2.24-.31.9-.86 1.2-1.54.83-.72-.38-1.08.19-1.08 1.75 0 1.13-.1 1.46-.59 1.8-.74.52-1.11.52-1.64 0zm-34.68-.44c-1.32-.76-1.44-2.29-.24-3.2.6-.46.64-.66.63-2.92 0-1.7-.12-2.57-.4-2.93-.52-.7-.49-1.84.08-2.32.25-.22 1.41-.53 2.58-.68 1.98-.26 2.71-.21 5.42.37.37.07 1.2.6 1.85 1.15l1.2 1.02-.02 2.07c-.02 1.76-.13 2.26-.73 3.3-.66 1.12-2.36 2.61-2.98 2.61-.14 0-.7.24-1.23.52-.9.48-4.3 1.34-5.23 1.32-.22 0-.64-.14-.93-.3zm5.47-3.79c3.8-1.3 3.58-5.61-.26-5.2-1.37.13-1.55.48-1.6 2.96-.02 1.8.13 2.65.46 2.65.11 0 .74-.19 1.4-.41zm104.78 3.8c-.17-.18-.31-.83-.31-1.45 0-1.24-.25-1.47-1.84-1.78-1.66-.31-2.74-1.98-1.8-2.76a5.08 5.08 0 0 1 1.92-.36c1.54-.08 1.57-.1 1.84-1.01.39-1.3.62-1.59 1.3-1.59.79 0 1.49.78 1.49 1.66 0 .94.38 1.12 2.3 1.12 1.95 0 2.63.46 2.35 1.58-.2.84-1.5 1.46-3.02 1.46-1.28 0-1.9.63-1.9 1.93 0 .68-.15 1.04-.5 1.24-.69.36-1.44.35-1.83-.05zM1.5 49.8c-1.16-.81-.5-3.3.88-3.3 1.54 0 2.25 2.05 1.1 3.13-.73.69-1.19.72-1.98.17zm21.9-.34c-.96-.97-1-1.71-.2-3.93.32-.9.5-1.72.41-1.81-.26-.26-2.12 1.7-2.69 2.83-1.46 2.88-4.57 3.99-6.24 2.22a5.34 5.34 0 0 1-.9-3.7c.32-1.06 1.81-3.12 2.53-3.48 1.61-.84 4.05-.27 4.67 1.1l.33.72.98-.93a9.27 9.27 0 0 1 1.56-1.23c.8-.42 1.81.02 2.31 1 .38.71.37.92-.1 2.45-1.01 3.39-.97 4.25.13 2.52.63-.99 1.87-3.96 2.1-5.01.24-1.14 2.03-1.36 2.43-.3.1.23-.03.98-.27 1.65-.64 1.79-.58 2.42.22 2.42.97 0 1.36.9.79 1.8-1.36 2.14-3 2.82-4.01 1.65-.44-.51-.46-.51-1.25-.03-1.52.9-1.94.92-2.8.05zm-5.44-2.03c.67-.73.94-1.71.94-3.44 0-1.6-.64-1.8-1.78-.55-.77.84-.86 1.11-.86 2.48 0 2.17.6 2.7 1.7 1.5zm111.69 2.2c-.44-.63-.54-1.72-.21-2.24.1-.17.52-.4.92-.5 1.05-.26 2.05.46 2.05 1.47 0 1.6-1.92 2.47-2.76 1.26zm13.97-.1c-.53-.52-.64-.83-.5-1.38.18-.76.8-1.38 1.4-1.38.58 0 1.65 1.25 1.65 1.95 0 .8-.64 1.49-1.36 1.49-.28 0-.82-.3-1.2-.67zm29.54.15c-.72-.72-.7-1.97.05-2.5 1.22-.85 2.6-.18 2.6 1.26 0 .84-.85 1.77-1.6 1.77-.29 0-.76-.24-1.05-.53zm73.44-.23c-.8-1.55.31-3.22 1.9-2.82.9.23 1.11.56 1.11 1.73 0 1.28-.27 1.6-1.52 1.77-.99.13-1.1.08-1.5-.68zm-204.62.27c-.59-.37-.81-1.69-.42-2.47.81-1.61 2.9-.92 2.85.94a2.73 2.73 0 0 1-.37 1.35c-.36.44-1.5.53-2.06.18zm13.32-.36c-.77-1.1-.38-2.4.8-2.7a1.53 1.53 0 0 1 1.96 1.53c0 1.61-1.89 2.41-2.76 1.17zm13.4-.07c-2.04-1.72-.77-5.84 2.32-7.48 1.71-.91 2.96-.69 3.46.63.41 1.1-.28 2.01-2.35 3.1-1.01.53-1.91 1.15-2 1.38-.33.87-.17 1.17.63 1.17.63 0 .95-.22 1.53-1.04.72-1.04 1.5-1.38 1.72-.74.28.78-1.06 2.4-2.64 3.2-1.16.6-1.76.55-2.67-.22zm3.54-6.16c-.3-.3-.95.24-.94.79v.6l.54-.63c.29-.35.47-.7.4-.76zm43.44 6.45c-.89-.67-.54-2.1.66-2.71.74-.39.84-.38 1.49.1 1.39 1.03.81 2.98-.87 2.97-.45 0-1.03-.17-1.28-.36zm40.79-.4c-1.44-1.45-.93-4.33 1.12-6.35 1.6-1.57 3.5-2.04 4.45-1.09 1.2 1.2.43 2.58-2.2 3.94-1.06.55-1.77 1.1-1.86 1.43-.37 1.41 1.09 1.36 2.24-.07.88-1.1 1.47-1.34 1.72-.69.27.7-.69 2-2.09 2.8-1.73 1-2.4 1-3.38.02zm3.47-5.34c.34-.64.19-.9-.4-.68-.44.17-.57 1.23-.15 1.23.14 0 .39-.25.55-.55zm26.55 5.44c-.9-1.38.8-3.17 2.3-2.41.92.46 1.23 1.55.68 2.4-.64.96-2.35.97-2.98.01zm13.68.16c-1.1-.96-1.3-3.34-.41-5.05.77-1.5 3.14-3.18 4.47-3.18.84 0 1.73.86 1.73 1.67 0 .95-.68 1.69-2.52 2.72-1.69.94-2.42 1.72-2.1 2.23.36.6 1.42.23 2.36-.82.97-1.06 1.73-1.23 1.73-.37 0 .76-.86 1.75-2.22 2.53-1.58.9-2.24.96-3.04.27zm3.41-6c0-.48-.38-.47-.78.01-.44.53-.1 1.07.41.66.2-.18.37-.48.37-.68zm12.7 5.98c-.6-.6-.7-1.65-.2-2.06.19-.15.77-.36 1.3-.46.81-.15 1.02-.08 1.38.43.24.34.43.83.43 1.09 0 .68-.95 1.53-1.72 1.53-.36 0-.9-.24-1.19-.53zm44.04-.13c-.52-.79-.3-2.14.42-2.52.83-.45 2.06-.32 2.36.25.41.75.34 2.04-.14 2.51-.66.67-2.14.53-2.64-.24zm-175.23-.28c-.67-1.47-.1-2.5 1.38-2.5 1.1 0 1.49.4 1.49 1.58 0 1.2-.39 1.6-1.6 1.6-.77 0-1.02-.14-1.27-.68zm13.37-.3c-.82-.82-.98-1.15-.98-2.12 0-1.78.57-3.18 1.74-4.33.88-.86 1.32-1.09 2.4-1.21 1.16-.14 1.4-.08 2.17.56 1.61 1.36 1.97 2.7 1.21 4.53-.98 2.39-2.47 3.54-4.55 3.54-.83 0-1.21-.19-2-.97zm3.38-1.23c.55-.83 1.04-3.42.83-4.29-.16-.61-.28-.68-.9-.53-.99.25-1.05.34-1.52 2.27-.32 1.28-.36 1.89-.15 2.44.35.9 1.19.96 1.74.1zM229.7 48.9c-3.16-2.78.89-9.37 4.7-7.64 1 .46 2 2.15 2 3.38 0 .58-.12 1.12-.26 1.21-.15.1-.27.4-.27.67 0 .7-1.53 2.38-2.57 2.81-1.42.6-2.59.46-3.6-.43zm3.1-1.3c.63-.7 1.29-3.9.94-4.55-.66-1.23-2.16.03-2.61 2.2-.3 1.43-.19 2.28.36 2.65.46.32.83.23 1.32-.3zm40.84 1.72a4.2 4.2 0 0 1-.9-1.59c-.43-1.3-.4-1.49.64-3.84.8-1.8 3.16-3.4 4.53-3.06 1 .24 1.88 1.17 1.88 1.96 0 .38-.24 1.08-.53 1.56-.47.76-.49.92-.15 1.26.3.3.33.56.11 1.18a5.58 5.58 0 0 1-2.53 2.66c-.92.35-2.51.28-3.05-.13zm3.55-2.48c.4-.72.42-.9.11-1.01-.48-.19-1.9.55-2.1 1.1-.5 1.27 1.28 1.19 2-.1zm17.55-17.3c-1.93-1.06-1.4-3.66.75-3.66 1.14 0 1.77.69 1.77 1.94 0 .82-.14 1.06-.86 1.5-1 .6-.96.6-1.66.22zm-126.62-.73c-.65-.64-.78-1-.78-2.07 0-2.56 2.07-5.39 4.2-5.75 1.29-.22 2.09.16 2.32 1.1.34 1.33-.16 2-2.2 3-2.04.98-2.25 1.2-2.01 2.11.22.85 1.53.51 2.53-.66.9-1.07 1.25-1.16 1.25-.36 0 .74-1.15 2.25-2.21 2.9-1.2.73-2.19.64-3.1-.27zm3.32-5.04c.27-.3.4-.7.3-.96-.16-.4-.25-.38-.83.16-.71.68-.86 1.32-.3 1.32.2 0 .57-.23.83-.52zm13.17 5.48c-.98-1.25-.3-2.93 1.2-2.93 1.05 0 1.64.5 1.64 1.38 0 .93-.23 1.21-1.3 1.57-1.12.39-1.22.39-1.54-.02zm79.42-.33c-.45-.68-.35-1.77.2-2.44.46-.55 2.27-.42 2.59.17.4.76.33 2.04-.14 2.52-.67.67-2.14.53-2.65-.25zm-262.46.15c-.72-.3-1.03-.74-1.4-2.05-.36-1.26-.09-3 .6-3.76.23-.26.42-.6.42-.75 0-.96 3.17-2.48 4.12-1.99.28.15.9.2 1.37.14 1.12-.17 1.7.3 1.48 1.21-.1.39-.26.82-.37.97-.27.36-1.05 3.02-1.05 3.62 0 .8.53.54.95-.47.43-1 1.22-1.17 1.39-.29.12.63-1.2 2.52-2.18 3.12-.75.45-.8.45-1.5-.05-.74-.52-.74-.52-1.62.01-.94.57-1.36.63-2.2.29zm2.38-2.27a3.5 3.5 0 0 0 .76-1.53c.08-.46.23-1.18.33-1.58.2-.82-.22-1.52-.93-1.52-.57 0-1.33 1.59-1.52 3.2-.25 2.13.24 2.64 1.36 1.43zm15.11 2.1c-1.17-1.18.36-3.01 2.04-2.43.61.22.72.4.72 1.23 0 .54-.14 1.13-.31 1.3-.46.45-1.95.4-2.45-.1zm13.75-.1c-.86-.96.04-2.66 1.42-2.66.85 0 1.88.97 1.88 1.76 0 1.32-2.34 1.95-3.3.9zm14.24.13c-.8-.56-.92-1.35-.31-2.12 1.05-1.34 3.07-.58 2.75 1.03-.26 1.37-1.35 1.85-2.44 1.09zm12.68-.2c-1.38-1.52-.95-4.39.96-6.28 2.12-2.1 4.37-2.38 5-.61.4 1.16-.16 1.9-2.37 3.12-1.73.95-1.94 1.15-1.94 1.85 0 1.23.74 1.13 2.1-.3 1-1.03 1.26-1.18 1.59-.9 1.06.88-2 3.7-4.03 3.7-.45 0-.98-.23-1.3-.59zm3.63-5.93c0-.47-.38-.46-.78.02-.44.53-.1 1.08.41.66.2-.17.37-.48.37-.68zm13.3 6.1c-1.2-.82-.43-2.76 1.09-2.76.47 0 1 .15 1.17.32.5.49.38 1.74-.21 2.33-.64.63-1.27.67-2.06.12zm12.88-.18c-1.25-1.32-1.32-2.39-.28-4.57.87-1.85 1.99-2.9 3.5-3.3 1.3-.35 2.24.12 2.52 1.24.29 1.13-.39 1.98-2.42 3.02-1.58.82-1.84 1.05-1.77 1.58.04.35.17.73.3.86.32.32 1.8-.5 2.17-1.21.36-.7.78-1.01 1.08-.83.51.32.11 1.26-1.07 2.49-1.12 1.16-1.4 1.32-2.37 1.32-.79 0-1.25-.17-1.66-.6zm3.1-5c1.07-1 .6-1.82-.48-.84-.47.42-.68 1.41-.3 1.41.1 0 .45-.26.79-.57zm13.2 5.18c-.6-.6-.5-1.36.26-2.12.67-.68 1.37-.69 2.18-.04.53.42.4 1.99-.18 2.3-.75.4-1.77.34-2.25-.14zm49.12.1c-.92-.92.1-2.86 1.5-2.86 1.39 0 2.18 1.8 1.2 2.76-.48.5-2.24.56-2.7.1zm43.74-.17c-1.33-.81-1.57-1.28-1.5-2.91.07-1.9.56-2.94 1.95-4.13.84-.71 1.34-.94 2.1-.94 1.39 0 2.3.4 2.65 1.19.4.87.77.84 1.63-.12.87-.98 1.76-1.23 2.74-.76.64.3.76.53.83 1.6.05.84-.1 1.67-.47 2.49a6.9 6.9 0 0 0-.54 1.59c0 .67.73.37 1.06-.43.2-.47.52-.8.8-.8 1.15 0 .97 1.26-.36 2.72-.77.83-1.08.99-2 .99-.93 0-1.13-.1-1.5-.82-.47-.91-.39-1.6.49-4.13.31-.9.49-1.72.39-1.82-.28-.28-.92.35-1.1 1.08-.1.36-.41.78-.71.94-.3.16-.78.84-1.07 1.53-1.2 2.8-3.43 3.93-5.4 2.73zm2.43-1.3c.52-.34 1.4-2.69 1.4-3.75 0-1.1-.76-2.04-1.43-1.78-.91.35-2.04 4.12-1.58 5.3.17.45 1.06.57 1.6.22zm19.84 1.59c-.06-.11-.2-.6-.3-1.08-.25-1.13.39-1.9 1.56-1.9 1.09 0 1.47.42 1.47 1.59 0 .84-.1.99-.88 1.27-1 .36-1.68.4-1.85.12zm13.04-.47c-1.83-1.95.37-7.13 3.32-7.8 1.23-.28 2.1.09 2.5 1.05.52 1.24-.1 2.06-2.36 3.17-1.73.85-1.99 1.06-1.92 1.6.15 1.3 1.22 1.22 2.43-.16.43-.5.97-.9 1.2-.9.77 0 .38.9-1.02 2.3-1.23 1.23-1.55 1.4-2.47 1.4-.78 0-1.2-.16-1.68-.66zm3.13-4.77c.6-.42.81-1.44.3-1.44-.37 0-1.28 1.08-1.3 1.52 0 .44.28.42 1-.08zm13.17 5.02c-.23-.23-.42-.6-.42-.8 0-.5.52-1.5.9-1.75.54-.36 1.66-.21 2.1.28.52.56.59 1.91.13 2.37-.46.46-2.22.4-2.7-.1zm27.05-.2c-2.3-2.12.26-7.84 3.71-8.3.95-.13 1.18-.05 1.89.66.94.95 1 1.46.25 2.68-.46.75-.5 1-.24 1.49.39.71.18 1.45-.71 2.51-1.4 1.66-3.67 2.1-4.9.96zm3.47-2c.68-.95.7-1.35.06-1.35-.7 0-1.9 1-1.9 1.6 0 .83 1.2.66 1.84-.25zm-72.69-8.02c-.48-.48-.38-1.92.17-2.42.69-.62 1.25-.54 1.88.26.7.89.69 1.04-.1 1.83-.7.7-1.45.83-1.95.33zm-67.9-9.89c-.43-.43-.55-1.86-.2-2.4.1-.17.52-.4.92-.5 1.05-.26 2.04.46 2.04 1.47 0 1.5-1.77 2.42-2.76 1.43zm106.71-.14c-.98-.98-.3-3.14 1-3.14 1.52 0 2.22 2.04 1.07 3.12-.77.73-1.35.73-2.07.02zM3.96 8.62c-1.6-.93-1.93-3-.82-5.17C4.4.97 6.88-.53 8.24.35c.76.5 1.02 1.52.63 2.47-.28.67-2.6 2.16-3.39 2.16-.58 0-.88.7-.61 1.42.36.96.9.87 2.1-.37 1.16-1.2 1.61-1.32 1.61-.45 0 .96-2.7 3.38-3.75 3.36-.19 0-.58-.15-.87-.32zm2.5-5.5c.62-.6.7-1.32.17-1.32-.38 0-1.22 1.1-1.22 1.58 0 .44.48.32 1.06-.26zM19.7 8.4c-.86-1.61.5-3.32 2.06-2.58.9.44 1.14 1.84.44 2.62-.63.7-2.12.68-2.5-.04zm13.76-.05c-1.05-.7-1.4-1.72-1.18-3.46.25-2.13 1.06-3.44 2.65-4.3 1.22-.66 1.48-.71 2.1-.43.38.18 1.14.26 1.68.18 1.57-.23 1.75.06 1.15 1.88-.28.86-.6 2.02-.69 2.58-.1.55-.24 1.18-.32 1.39-.08.2-.04.37.09.37.12 0 .37-.35.53-.79.34-.9 1.4-1.15 1.4-.33 0 .7-1.1 2.46-1.89 3.05-.68.5-.72.5-1.51.04-.77-.46-.86-.46-1.76-.03-1.19.56-1.2.56-2.25-.15zm3.02-2.72c.7-1.47.92-3.4.42-3.7-.92-.57-2.38 1.67-2.38 3.67 0 1.25.13 1.5.81 1.5.3 0 .7-.53 1.15-1.47zm15.1 2.79c-.54-.6-.58-1.96-.08-2.57.42-.5 1.92-.43 2.43.14.92 1.02.34 2.44-1.16 2.82-.5.12-.81.02-1.18-.4zm13.12.06c-1.12-.9-1.3-3.86-.32-5.36.24-.36.56-.9.7-1.19.16-.29.78-.8 1.38-1.13.98-.54 1.3-.58 3.23-.42l2.14.17v.84c0 .46-.11.95-.25 1.09-.36.37-1.3 4.07-1.07 4.22.25.15.67-.36.9-1.1.23-.74.82-.96 1.23-.48.46.56-.1 1.76-1.37 2.9-1.17 1.06-1.32 1.09-2.25.48-.63-.4-.72-.4-1.42 0-.97.57-2.18.57-2.9-.02zm2.99-1.98c.5-.83 1.03-2.9.92-3.67-.13-.96-1.15-1-1.62-.05-.56 1.1-1.09 3.39-.9 3.88.24.63 1.17.53 1.6-.16zm15.26 1.93c-.73-1.36-.03-2.66 1.41-2.66 1.1 0 1.5.4 1.5 1.52 0 .76-.14.94-.92 1.27-1.23.51-1.66.48-1.99-.13zm14.21.1c-1.39-.76-.65-2.76 1.02-2.76.64 0 1.43 1.01 1.43 1.83 0 .51-.91 1.36-1.45 1.33-.15 0-.6-.18-1-.4zm12.66-.4c-1.89-2.25-.05-6.45 3.35-7.67 1.4-.5 2.35-.12 2.65 1.05.31 1.22-.24 1.92-2.45 3.11-2.05 1.1-1.77.87-2 1.75-.16.67-.11.72.63.72.61 0 .99-.24 1.63-1.06.87-1.09 1.5-1.33 1.75-.68.27.7-.69 2-2.08 2.8-1.8 1.03-2.6 1.02-3.48-.02zm3.56-5.3c.34-.63.19-.9-.4-.67-.44.17-.57 1.23-.15 1.23.14 0 .39-.25.55-.55zm12.74 5.8c-.78-.79-.07-2.62 1.17-2.97 1.4-.41 2.58 1.85 1.47 2.85-.56.5-2.18.58-2.64.12zm27.1-.5c-.91-1.07-.93-2.7-.05-4.42 1.6-3.14 4.8-4.46 5.85-2.42.35.67.34.85-.05 1.67-.35.74-.8 1.09-2.23 1.72-2 .9-2.13 1.02-1.92 1.84.25.96 1.33.73 2.47-.52.96-1.05 1.59-1.18 1.59-.34 0 .22-.64 1.05-1.41 1.84-1.25 1.28-1.53 1.44-2.5 1.44-.87 0-1.2-.14-1.76-.8zm3.28-4.74c.6-.61.7-1.32.16-1.32-.38 0-1.22 1.09-1.22 1.57 0 .44.48.32 1.06-.25zm13.45 5.22c-1.43-1.15 0-3.24 1.76-2.58.55.21.66.43.66 1.31 0 .77-.14 1.13-.51 1.33-.69.37-1.41.35-1.91-.06zm13.73-.1c-1.46-.77-1.91-2.62-1.11-4.6 1.12-2.78 2.07-3.4 5.21-3.37 2.7.02 2.9.18 2.22 1.74-.23.54-.55 1.51-.7 2.17-.67 2.74-.66 2.55-.14 2.12.25-.2.57-.65.7-.99.13-.35.45-.6.76-.6.7 0 .69.04-.28 1.85-.68 1.29-.95 1.55-1.65 1.66a2.28 2.28 0 0 1-1.42-.26c-.5-.33-.65-.33-1.19 0-.96.61-1.6.68-2.4.27zm2.88-2.6c.46-1 .63-1.8.58-2.58-.07-1-.16-1.13-.75-1.13-.52 0-.78.25-1.24 1.19-.93 1.9-.73 3.97.39 3.97.2 0 .65-.65 1.02-1.45zm14.77 2.38c-.52-.78-.25-1.88.58-2.44.47-.3.63-.28 1.24.2.9.71.91 1.64.01 2.35-.9.71-1.31.69-1.83-.1zm14.12.2c-.67-.79-.78-1.44-.35-2.1.6-.9 2.05-.87 2.47.05.44.96.4 1.28-.3 1.93-.74.7-1.3.73-1.82.11zm13.48-.21c-2.18-1.48-1.84-4.7.73-6.96l1.2-1.05 2.17.08 2.4.1c.27.03.14.84-.48 3.03-.46 1.65-.4 2.04.25 1.5.22-.18.58-.26.8-.17 1.06.4-.13 2.92-1.79 3.78-.65.33-.82.33-1.5-.07-.7-.42-.82-.42-1.68-.01-1.14.54-.94.56-2.1-.23zm2.93-2.56c.35-.7.64-1.8.66-2.52.04-1.11-.02-1.28-.53-1.35-1.1-.16-2.7 3.02-2.31 4.59.14.55.3.67.87.6.53-.06.84-.37 1.3-1.32zm28.8 2.74c-.96-1.04-.16-2.95 1.23-2.95.75 0 1.76 1.02 1.76 1.79 0 1.34-2.1 2.16-3 1.16z"/>
</svg>
