<?xml version="1.0" encoding="utf-8"?>
<svg xmlns="http://www.w3.org/2000/svg" width="230" height="21" viewBox="0 0 230 21">
  <title>A diagram consisting of one line of characters and symbols. It reads: D, DF under a line, a rectangle, 19 F + 44, a right triangle lying on the hypotenuse with a dot at the left corner, 357, and the same triangle flipped horizontally.</title>
  <path d="M188.14 19.8c-.72-.7-.67-1.14.22-2.17.42-.48 1.38-2.06 2.14-3.51a28.84 28.84 0 0 1 1.82-3.13c.34-.39.36-.57.1-.99a3.26 3.26 0 0 1-.32-1.43c0-.85.09-.94 1.11-1.25 1.47-.44 2.86-1.84 2.86-2.87 0-.96-.62-1.03-2.34-.25-1.47.67-1.77.66-2.27-.06-.63-.9-.5-1.87.33-2.68.7-.67.95-.72 3.9-.9 1.74-.09 3.62-.16 4.17-.14 2.56.08 2.29 1.74-.88 5.23-1.04 1.16-1.32 1.65-1.32 2.37 0 .78-.17 1.03-1.14 1.7-1.12.77-1.87 2.01-3.5 5.81-.27.64-.88 1.7-1.36 2.38a5.5 5.5 0 0 0-.88 1.57c0 .34-1.04.85-1.74.85-.2 0-.61-.23-.9-.53zM85.2 19.35c-.94-.18-1.32-.57-1.32-1.36 0-.92.15-1.1 1.72-2.16 1.92-1.3 3.57-3.1 3.57-3.9 0-.39-.64-.37-2.38.06-.48.12-1-.05-1.9-.62-.99-.63-1.28-.99-1.42-1.74-.1-.52-.28-1-.41-1.09-.36-.22-.28-1.49.15-2.23.21-.36.5-.91.64-1.22.14-.31.68-.83 1.2-1.15 1.38-.85 3.1-.57 4.95.8a9.59 9.59 0 0 0 1.56 1.04c.1 0 .33 1.25.5 2.77.4 3.38.15 4.5-1.62 7.17-.77 1.16-3.2 3.56-3.62 3.56-.14 0-.4.04-.6.09-.2.05-.65.04-1.02-.03zm3.36-10.7c.34-.32.61-.77.61-1 0-.46-1.37-1.34-2.08-1.34s-1.62.77-1.62 1.38c0 1.44 1.94 2.04 3.09.96zm-65.34 7.8c-.94-.61-.91-.95.14-1.77 1.72-1.36 1.82-1.5 1.66-2.24-.08-.39-.26-1.64-.39-2.78-.18-1.69-.36-2.2-.92-2.8-.69-.71-.92-1.96-.42-2.27.46-.29.29-.6-.66-1.19-.76-.47-.93-.73-.93-1.44 0-.48.15-1 .33-1.14.61-.47 2.21-.55 4.9-.23 1.45.17 2.96.23 3.35.13.38-.1 1.8-.21 3.14-.24S37.62.3 39.76.16c3.47-.24 3.97-.22 4.57.17.5.32.67.67.67 1.33 0 1.32-.79 1.72-3.21 1.64-1.07-.04-2.23.03-2.57.15-.34.12-3.62.23-7.28.24-6.15.02-8.37.2-7.32.6.22.07 1.06.2 1.86.26 1.8.14 4.41 1.04 5.3 1.83a4.79 4.79 0 0 1 1.34 4.7c-.2.9-.57 1.43-1.67 2.4-.77.68-1.76 1.42-2.2 1.64-3.48 1.74-4.88 2.05-6.02 1.32zm6.17-4.42c1.5-1.46 1.75-2.11 1.23-3.2-.34-.71-.64-.94-1.4-1.09-1.56-.29-1.82.04-1.9 2.4-.1 2.96.45 3.46 2.07 1.89zm20.47 4.39c-2.25-.36-2.64-1.12-2.57-4.92.04-1.62.07-3.55.07-4.29 0-2.15.2-2.23 5.44-2.38a46.4 46.4 0 0 0 4.64-.25c.12-.08 2.44-.25 5.15-.4 2.7-.13 5.21-.32 5.56-.41.48-.12.83.03 1.42.63l.79.78v4.34c0 3.11-.1 4.46-.35 4.8-.24.31-.85.5-2.03.6-5.74.48-8.15.64-11.18.76-2.03.08-3.54.25-3.77.44-.36.3-2.12.47-3.17.3zm10.34-4.06c8-.6 7.5-.36 7.44-3.48-.04-2.58.58-2.43-6.12-1.48-2.2.3-4.5.46-7.67.5-2.17.03-3.46.38-3.7 1-.17.44.6 1.22 1.5 1.52.25.08.52.37.6.64.1.26.45.79.8 1.16.55.6.78.67 1.9.56.7-.07 3.07-.26 5.25-.42zm17.71 2.83c-.77-.78-.83-1.87-.23-4.28.57-2.29.44-3.26-.52-3.8-1.08-.59-1.32-1.4-.65-2.24.29-.37.67-.68.84-.68.17 0 .61-.24.97-.53.84-.65 2.17-.67 2.74-.04.38.42.4.7.16 1.92a65.63 65.63 0 0 0-.81 7.91c.05 2.24-1.15 3.08-2.5 1.74zM.61 15.16c-.84-.59-.8-2.05.07-2.92.6-.6.66-.86.65-2.96 0-1.6-.12-2.46-.4-2.82-.52-.7-.49-1.83.08-2.33.67-.6 2.29-.96 4.57-1.03 2.37-.08 4.07.61 5.53 2.24.84.93.9 1.12.88 2.72a4.94 4.94 0 0 1-.68 2.82 8.1 8.1 0 0 1-5.13 3.79 7.6 7.6 0 0 0-1.72.54c-.96.49-3.13.46-3.85-.05zm6.9-4.05c1.65-1.08 2.05-3.13.86-4.26-.58-.54-.81-.58-2.12-.42-.8.1-1.53.3-1.62.44-.22.36-.37 3.92-.2 4.67.13.54.25.58 1.1.42.54-.1 1.43-.48 1.99-.85zm90.3 3.7c-.7-.73-.73-.86-.57-2.45.32-3 .18-5.55-.32-6.3-1.2-1.77-1.24-2.72-.1-3.15.64-.24 5.54-.63 7.69-.6 1.03 0 2.1.7 2.42 1.54.16.43.05.73-.49 1.27-.65.64-.8.68-2.3.52-2.08-.22-3.85.21-3.85.95 0 .37.19.51.68.51.85 0 2.65.91 2.85 1.44.09.22.03.76-.12 1.2-.23.65-.43.8-1.05.8-.42 0-.77-.12-.77-.26 0-.35-1.5-.34-1.72 0-.1.15-.02.91.15 1.7.28 1.25.26 1.53-.18 2.44-.63 1.3-1.34 1.42-2.31.4zm37.06.28c-.73-.45-1.09-1.1-1.1-2.03 0-.49-.16-.52-1.93-.44-1.45.07-2.1-.02-2.58-.34-.8-.52-.82-1.04-.13-2.4.3-.57.53-1.2.53-1.39 0-.19.2-.64.44-1.01s.76-1.6 1.16-2.73c.87-2.49 1.47-3.47 2.14-3.47.58 0 1.55.9 1.55 1.43 0 .75-.78 2.55-1.85 4.24-.62.98-1.04 1.93-.96 2.15.39 1 2.29.58 2.29-.5 0-.36.21-.91.48-1.24.65-.8 1.47-.5 2.08.75.3.6.7 1.01 1.05 1.06.3.04.78.32 1.05.61.43.49.44.6.08 1.25-.22.39-.7.85-1.08 1.03-.5.24-.78.67-.98 1.5-.18.69-.54 1.31-.91 1.55-.56.37-.69.37-1.33-.02zm-99.17-.22c-.26-.32-.37-1.4-.4-3.87-.04-2.7-.14-3.61-.5-4.28-.83-1.53.1-3 1.44-2.28.28.16 1.75.28 3.26.28 3 0 3.9.33 3.9 1.43 0 1.34-1.77 2.13-3.27 1.45-.75-.34-2.1-.1-1.95.36.06.17.48.4.94.53 1.62.42 1.41 2.74-.26 2.9-.87.08-.88.1-1 1.67a7.16 7.16 0 0 1-.35 1.92c-.3.47-1.38.4-1.8-.11zm133.6-.32a2.8 2.8 0 0 1-1.54-2.7c0-1.06.91-1.27 2.22-.5 1.73 1.03 4.65.2 4.82-1.36.03-.35.1-.86.15-1.13.05-.3-.2-.71-.64-1.04l-.72-.55-1.04.58-1.04.59-.55-.7c-.78-1-.7-1.36.57-2.5 1.24-1.1 1.2-1.75-.06-.83-.95.7-1.38.72-1.95.1-.9-1.01-.32-2.38 1.42-3.33 1.64-.9 2.15-.87 3.26.18.76.71.95 1.12 1.1 2.36.15 1.16.43 1.8 1.25 2.9 1 1.32 1.05 1.5.95 2.9-.13 1.78-.86 2.88-2.94 4.44-1.79 1.34-3.65 1.55-5.26.6zm52.3.43c-.58-.13-1.89-.18-2.9-.1-1.12.08-2.54-.01-3.57-.23-.95-.2-2.04-.3-2.42-.22a6.32 6.32 0 0 1-2.2-.3c-1.7-.5-6.24-.54-8.54-.08-1.62.32-2.6-.12-2.89-1.3-.21-.86.1-1.42 1.11-1.96l2.23-1.18c1.61-.85 5.51-2.5 5.92-2.5.14 0 1.22-.47 2.4-1.04a36 36 0 0 1 3.99-1.6c1.02-.32 2.03-.74 2.25-.93.21-.19 1.44-.8 2.72-1.34l2.32-.99 1 .45c1 .46 2.02 1.88 3.68 5.18a12.93 12.93 0 0 0 1.83 2.99c.5.57.93 1.4 1.26 2.4.24.74-.33 2.24-.99 2.59-.71.38-5.79.5-7.2.16zm3.42-3.27c.67-.26.5-1.1-.5-2.41a5.28 5.28 0 0 1-.93-1.55c0-.56-1.64-3.03-2.01-3.03-.19 0-.9.3-1.59.66a5.8 5.8 0 0 1-1.72.67c-.26 0-.54.11-.63.25-.09.15-.64.4-1.24.55-.6.16-1.7.57-2.44.9-.74.34-1.92.7-2.6.8-.74.1-1.58.44-2.03.82-.42.35-1.06.64-1.42.64-.8 0-1.52.71-.95.93.4.15 10.9.46 14.06.41a8.25 8.25 0 0 1 2.52.24c.53.3.9.34 1.48.12zm-6.04-2.2c-.4-.45-.42-.6-.1-1.26.62-1.33 2.6-1.08 2.6.32 0 1.32-1.61 1.92-2.5.93zm-94.96 5.36c-.1-.1-.18-.63-.18-1.18 0-.55-.1-1.06-.23-1.14-.13-.08-.8.05-1.48.28-1.14.39-1.34.4-2.12.02-1.06-.5-1.36-1.46-.83-2.65.2-.46.5-1.2.65-1.64.54-1.57 1.57-3.88 1.86-4.18.17-.16.3-.49.3-.73 0-.72 1.04-1.84 1.7-1.84 1.33 0 1.68 1.47.77 3.21a6.65 6.65 0 0 1-.91 1.44c-.13.08-.24.33-.24.55 0 .23-.25.76-.55 1.19-.65.91-.5 1.55.36 1.55.77 0 1.25-.46 1.25-1.21 0-.7.64-1.29 1.18-1.08.22.08.75.9 1.18 1.8l.8 1.66-.53.84a3.72 3.72 0 0 0-.51 1.62c0 .43-.22.98-.49 1.22-.48.44-1.65.6-1.98.27zm55.38-.38c-.8-.3-1.6-1.61-1.45-2.38.26-1.36 1.4-1.7 2.59-.77.76.6 1.54.67 2.39.22.92-.5 1.22-1.07 1.23-2.36 0-1.05-.08-1.26-.67-1.52a4.13 4.13 0 0 0-1.43-.31c-.92 0-1.6-.61-1.6-1.45 0-.77 1.44-4.33 1.96-4.85.37-.37 1.42-.63 4.06-1.02 1.51-.21 2.44.36 2.25 1.42-.25 1.37-1.22 1.9-3.7 2.05-.72.04-1.69.94-1.2 1.12.9.34 2.12 1.4 2.64 2.34 1.31 2.33-.08 5.85-2.89 7.3a6.22 6.22 0 0 1-4.18.21zm-38.99-.8c-.48-.7-.53-1.1-.2-1.76a83.42 83.42 0 0 0 2.41-5.32c.44-1.08.8-2.1.8-2.28 0-.18.43-.89.96-1.58.89-1.16 1.03-1.25 1.87-1.11.5.08 1.75.69 2.79 1.35 1.04.66 2.02 1.2 2.18 1.2.38 0 2.44.98 3.31 1.58.37.25 1.2.66 1.86.92.65.25 2.2 1.03 3.44 1.72 1.23.7 2.68 1.34 3.21 1.44 1.1.2 1.81 1.07 1.8 2.2 0 1.2-.3 1.42-1.86 1.39-2.59-.05-14.76.38-19.46.68-2.6.17-2.7.16-3.11-.44zm13.13-2.93c3.28.05 4.96-.02 4.96-.2 0-.15-.32-.35-.72-.44-.4-.1-.91-.33-1.13-.5a3.55 3.55 0 0 0-1.26-.52c-.47-.1-1.66-.57-2.64-1.05-.98-.47-2.14-.95-2.57-1.05-.42-.11-1.08-.4-1.45-.65-.37-.26-1-.6-1.41-.78-.63-.27-.8-.24-1.25.2-.29.3-.6.86-.7 1.26a6.5 6.5 0 0 1-.8 1.66c-.62.92-.8 1.85-.42 2.23.1.1 1.15.1 2.31-.02 1.17-.12 4.35-.18 7.08-.14zm-7.41-.9a1.4 1.4 0 0 1 .07-2.34c1.3-.85 2.29.67 1.45 2.25-.34.62-.74.64-1.52.1zm-34.65 3.72c-.7-.3-.81-.47-.77-1.23.09-1.36-.23-1.75-1.56-1.95-1.55-.24-2.5-.99-2.5-1.98 0-.93.6-1.3 1.78-1.12 1.53.23 2.04-.06 2.39-1.38.28-1.06.4-1.2 1.07-1.2.9 0 1.72.8 1.48 1.42-.32.84.41 1.3 1.86 1.16 1.66-.17 2.5.05 2.97.77.34.5.31.64-.25 1.3-.54.62-.9.75-2.46.88-1.71.15-1.84.2-1.9.82-.28 2.57-.72 3.1-2.11 2.51z"/>
</svg>
